<svg width="31" height="27" viewBox="0 0 31 27" fill="none" xmlns="http://www.w3.org/2000/svg">
<path d="M2.19883 10.998H24.1913L16.9558 3.76246C16.7497 3.55801 16.586 3.31477 16.4744 3.04677C16.3627 2.77877 16.3053 2.49132 16.3053 2.20099C16.3053 1.91066 16.3627 1.62321 16.4744 1.35521C16.586 1.08721 16.7497 0.843973 16.9558 0.639525C17.3678 0.229913 17.9253 0 18.5063 0C19.0873 0 19.6447 0.229913 20.0567 0.639525L29.4915 10.0963C30.3175 10.9174 30.7842 12.0326 30.7891 13.1972C30.7784 14.3543 30.3122 15.4605 29.4915 16.2762L20.0567 25.7329C19.8517 25.9366 19.6085 26.0978 19.3412 26.2074C19.0738 26.3171 18.7875 26.373 18.4985 26.372C18.2095 26.3709 17.9236 26.313 17.657 26.2015C17.3904 26.0899 17.1484 25.927 16.9448 25.7219C16.7412 25.5169 16.58 25.2737 16.4703 25.0064C16.3607 24.739 16.3048 24.4527 16.3058 24.1637C16.3068 23.8747 16.3647 23.5888 16.4763 23.3222C16.5878 23.0556 16.7507 22.8136 16.9558 22.61L24.1913 15.3965H2.19883C1.61556 15.3965 1.05617 15.1648 0.643729 14.7523C0.23129 14.3399 -0.000413895 13.7805 -0.000413895 13.1972C-0.000413895 12.614 0.23129 12.0546 0.643729 11.6421C1.05617 11.2297 1.61556 10.998 2.19883 10.998Z" fill="#323232"/>
</svg>
