<svg width="33" height="35" viewBox="0 0 33 35" fill="none" xmlns="http://www.w3.org/2000/svg">
<path d="M21.7454 30.9622C21.7454 32.8826 20.2595 34.4558 18.3746 34.5948L18.1028 34.6048H14.4602C12.5399 34.6048 10.9666 33.1189 10.8275 31.2341L10.8176 30.9622H21.7454ZM16.2818 0C23.1763 0 28.7926 5.47263 29.0236 12.3108L29.031 12.7491V19.6044L32.3494 26.2416C32.9837 27.5102 32.1354 28.9922 30.7667 29.1304L30.5576 29.1409H2.00602C0.587626 29.1409 -0.358521 27.7194 0.129946 26.4333L0.214096 26.2416L3.53263 19.6044V12.7491C3.53263 5.70799 9.24062 0 16.2818 0Z" fill="white"/>
</svg>
