<?xml version="1.0" encoding="UTF-8"?>
<!-- Uploaded to: SVG Repo, www.svgrepo.com, Generator: SVG Repo Mixer Tools -->
<svg width="800px" height="800px" version="1.1" viewBox="0 0 32 32" xml:space="preserve" xmlns="http://www.w3.org/2000/svg" xmlns:cc="http://creativecommons.org/ns#" xmlns:dc="http://purl.org/dc/elements/1.1/" xmlns:rdf="http://www.w3.org/1999/02/22-rdf-syntax-ns#" xmlns:xlink="http://www.w3.org/1999/xlink"><title>image-picture</title><desc>Created with Sketch Beta.</desc><defs><linearGradient id="wg" x1="3.4" x2="34" y1="-34" y2="38" gradientTransform="matrix(.102 0 0 .102 5.52 5.34)" gradientUnits="userSpaceOnUse" xlink:href="#we"/><linearGradient id="we" x1="71" x2="88" y1="167" y2="37" gradientTransform="matrix(.36 0 0 .36 20 21)" gradientUnits="userSpaceOnUse"><stop stop-color="#5d30ff" offset="0"/><stop stop-color="#00bdff" offset="1"/></linearGradient><linearGradient id="wf" x1="14" x2="14" y1="80" y2="-36" gradientTransform="matrix(.102 0 0 .102 5.52 5.34)" gradientUnits="userSpaceOnUse" xlink:href="#we"/></defs><g fill-rule="evenodd"><path id="image-picture" d="m30 17.1-6-6.13-9.94 10.1-4.06-4.11-8 7.34v-20.3c0-1.1 0.896-2 2-2h24c1.1 0 2 0.896 2 2zm0 10.9c0 1.1-0.896 2-2 2h-5.17l-7.37-7.46 8.54-8.54 6 6zm-26 2c-1.1 0-2-0.896-2-2v-0.939l7.94-7.12 10.1 10.1zm24-30h-24c-2.21 0-4 1.79-4 4v24c0 2.21 1.79 4 4 4h24c2.21 0 4-1.79 4-4v-24c0-2.21-1.79-4-4-4z"/><path d="m6.95 7.9s-0.0952-1.84 1.84-1.84c0.942 0 1.84 0.737 1.84 1.84 0 2.05-1.84 2.56-2.56 2.56-0.655 0-1.13-0.205-1.13-0.205 0.266-1 1.02-1.23 1.13-1.23 0.911-0.133 1.13-0.655 1.13-1.23 0-0.839-0.604-1.13-1.13-1.13-0.522 0-1.13 0.43-1.13 1.13z" fill="url(#wg)" stroke-width=".102"/><path d="m6.95 10.3s-1.43-0.604-1.43-2.25c0-1.74 1.33-2.56 2.56-2.56 1.74 0 2.56 1.54 2.56 2.56 0 0-0.113-1.84-1.84-1.84-0.819 0-1.84 0.624-1.84 1.84-0.00389 1.23 0 2.25 0 2.25z" fill="url(#wf)" stroke-width=".102"/></g><metadata><rdf:RDF><cc:Work rdf:about=""><dc:title>image-picture</dc:title></cc:Work></rdf:RDF></metadata></svg>
