<svg width="40" height="37" viewBox="0 0 40 37" fill="none" xmlns="http://www.w3.org/2000/svg">
<path d="M26.5533 1.06358C25.98 -0.558091 23.5583 -0.239758 23.3433 1.43858C23.0433 4.13024 21.9267 6.62191 15.8333 6.62191L6.66667 6.62191C2.99 6.62357 -8.40445e-07 9.61357 -1.16187e-06 13.2902L-1.45328e-06 16.6236C-1.67606e-06 19.1719 1.45333 21.3636 3.55833 22.4852L8.46 33.5302C9.29333 35.4086 11.1583 36.6219 13.215 36.6219C14.975 36.6219 16.6017 35.7436 17.565 34.2702C18.5283 32.7969 18.685 30.9569 17.9817 29.3419L15.345 23.2869L15.8317 23.2869C21.925 23.2869 23.0417 25.7786 23.3417 28.4702C23.6033 30.4952 26.615 30.3152 26.665 28.2869L26.665 1.62358C26.63 1.43691 26.605 1.24691 26.5517 1.06358L26.5533 1.06358ZM14.9267 30.6752C15.1833 31.2636 15.1283 31.9086 14.7767 32.4452C14.0233 33.6002 12.0683 33.4419 11.5083 32.1786L7.56333 23.2902L11.71 23.2902L14.9267 30.6752ZM15.8333 19.9552L6.66667 19.9552C4.82833 19.9552 3.33333 18.4602 3.33333 16.6219L3.33333 13.2886C3.33333 11.4502 4.82833 9.95524 6.66667 9.95524L15.8333 9.95524C19.0383 9.95524 21.535 9.29358 23.3333 8.00024L23.3333 21.9119C21.535 20.6186 19.0383 19.9569 15.8333 19.9569L15.8333 19.9552ZM36.095 24.3836C35.77 24.7086 35.3433 24.8719 34.9167 24.8719C34.49 24.8719 34.0633 24.7086 33.7383 24.3836C33.0867 23.7319 33.0867 22.6786 33.7383 22.0269C37.6367 18.1286 37.6367 11.7836 33.7383 7.88524C33.0867 7.23358 33.0867 6.18024 33.7383 5.52858C34.39 4.87691 35.4433 4.87691 36.095 5.52858C41.2933 10.7269 41.2933 19.1852 36.095 24.3836ZM31.195 20.1569C30.87 20.4819 30.4433 20.6452 30.0167 20.6452C29.59 20.6452 29.1633 20.4819 28.8383 20.1569C28.1867 19.5052 28.1867 18.4519 28.8383 17.8002C30.4067 16.2319 30.4067 13.6786 28.8383 12.1102C28.1867 11.4586 28.1867 10.4052 28.8383 9.75357C29.49 9.10191 30.5433 9.10191 31.195 9.75358C34.0633 12.6219 34.0633 17.2886 31.195 20.1569Z" fill="white"/>
</svg>
