<svg width="40" height="35" viewBox="0 0 40 35" fill="none" xmlns="http://www.w3.org/2000/svg">
<path d="M24.9983 28.3327C24.155 28.3327 23.4367 27.6977 23.3433 26.8494C23.0433 24.1577 21.9267 21.666 15.8333 21.666L6.66666 21.666C2.99 21.666 -1.63271e-06 18.676 -1.31129e-06 14.9994L-1.16558e-06 13.3327C-8.44157e-07 9.65603 2.99 6.66603 6.66667 6.66603L15.8333 6.66603C21.9267 6.66603 23.0433 4.17436 23.3433 1.4827C23.4417 0.604363 24.1633 -0.0473038 25.0933 0.00269629C25.975 0.0510297 26.6667 0.782696 26.6667 1.6677L26.6667 26.6677C26.6667 27.5527 25.975 28.2827 25.0933 28.3327C25.06 28.3327 25.03 28.3327 24.9983 28.3327ZM36.095 23.5944C38.6133 21.076 40 17.7277 40 14.166C40 10.6044 38.6133 7.25603 36.095 4.7377C35.4433 4.08603 34.39 4.08603 33.7383 4.7377C33.0867 5.3877 33.0867 6.4427 33.7383 7.09436C35.6267 8.9827 36.6667 11.4944 36.6667 14.166C36.6667 16.8377 35.6267 19.3477 33.7383 21.2377C33.0867 21.8894 33.0867 22.9444 33.7383 23.5944C34.39 24.246 35.4433 24.246 36.095 23.5944ZM31.195 19.3677C34.0633 16.4994 34.0633 11.8327 31.195 8.96436C30.5433 8.3127 29.49 8.3127 28.8383 8.96436C28.1867 9.61603 28.1867 10.6694 28.8383 11.321C30.4067 12.8894 30.4067 15.4427 28.8383 17.011C28.1867 17.6627 28.1867 18.716 28.8383 19.3677C29.49 20.0194 30.5433 20.0194 31.195 19.3677ZM14.6483 24.9994L6.66666 24.9994C6.16166 24.9994 5.66833 24.9494 5.18333 24.8777L8.545 32.4527C9.23166 34.001 10.7683 35.001 12.4633 35.001C15.5517 35.001 17.6267 31.8344 16.3933 29.0027L14.65 25.001L14.6483 24.9994Z" fill="white"/>
</svg>
