<svg width="351" height="128" viewBox="0 0 351 128" fill="none" xmlns="http://www.w3.org/2000/svg">
<path d="M286.757 127.991C267.612 127.991 249.59 119.537 237.307 104.802C235.778 102.968 233.522 101.915 231.133 101.915C228.745 101.915 226.479 102.977 224.959 104.802C212.677 119.537 194.655 127.991 175.509 127.991C156.364 127.991 138.342 119.537 126.06 104.802C124.53 102.968 122.274 101.915 119.886 101.915C117.497 101.915 115.231 102.977 113.712 104.802C101.429 119.537 83.4073 127.991 64.2619 127.991C28.822 127.991 0 99.2818 0 64C0 28.7182 28.822 0 64.2524 0C83.3979 0 101.42 8.45372 113.702 23.189C115.231 25.0226 117.488 26.0758 119.876 26.0758C122.265 26.0758 124.53 25.0132 126.05 23.189C138.333 8.45372 156.355 0 175.5 0C194.645 0 212.667 8.45372 224.95 23.189C226.479 25.0226 228.735 26.0758 231.124 26.0758C233.512 26.0758 235.778 25.0132 237.298 23.189C249.58 8.45372 267.602 0 286.748 0C322.178 0 351 28.7088 351 64C351 99.2912 322.178 128 286.748 128L286.757 127.991Z" fill="#D9D9D9"/>
</svg>
