<svg width="54" height="42" viewBox="0 0 54 42" fill="none" xmlns="http://www.w3.org/2000/svg">
<rect x="2.7832" y="2.07275" width="48.4431" height="37.3324" rx="3" stroke="white" stroke-width="4"/>
<mask id="path-2-inside-1_5766_21848" fill="white">
<ellipse cx="43.6741" cy="9.6284" rx="3.33324" ry="3.33324"/>
</mask>
<ellipse cx="43.6741" cy="9.6284" rx="3.33324" ry="3.33324" fill="white"/>
<path d="M47.0073 9.6284H43.0073C43.0073 9.26016 43.3058 8.96164 43.6741 8.96164V12.9616V16.9616C47.7241 16.9616 51.0073 13.6784 51.0073 9.6284H47.0073ZM43.6741 12.9616V8.96164C44.0423 8.96164 44.3408 9.26016 44.3408 9.6284H40.3408H36.3408C36.3408 13.6784 39.624 16.9616 43.6741 16.9616V12.9616ZM40.3408 9.6284H44.3408C44.3408 9.99665 44.0423 10.2952 43.6741 10.2952V6.29517V2.29517C39.624 2.29517 36.3408 5.57837 36.3408 9.6284H40.3408ZM43.6741 6.29517V10.2952C43.3058 10.2952 43.0073 9.99665 43.0073 9.6284H47.0073H51.0073C51.0073 5.57837 47.7241 2.29517 43.6741 2.29517V6.29517Z" fill="white" mask="url(#path-2-inside-1_5766_21848)"/>
<mask id="path-4-inside-2_5766_21848" fill="white">
<rect x="9.23633" y="19.6294" width="26.6659" height="4.44432" rx="1"/>
</mask>
<rect x="9.23633" y="19.6294" width="26.6659" height="4.44432" rx="1" fill="white" stroke="white" stroke-width="4.44432" mask="url(#path-4-inside-2_5766_21848)"/>
<mask id="path-5-inside-3_5766_21848" fill="white">
<rect x="9.23633" y="26.2952" width="26.6659" height="4.44432" rx="1"/>
</mask>
<rect x="9.23633" y="26.2952" width="26.6659" height="4.44432" rx="1" fill="white" stroke="white" stroke-width="4.44432" mask="url(#path-5-inside-3_5766_21848)"/>
</svg>
