<svg width="45" height="36" viewBox="0 0 45 36" fill="none" xmlns="http://www.w3.org/2000/svg">
<path d="M22.5 34C26.5545 34 30.518 33.0616 33.8892 31.3035C37.2604 29.5454 39.8879 27.0466 41.4395 24.1229C42.9911 21.1993 43.3971 17.9823 42.6061 14.8786C41.8151 11.7749 39.8627 8.92394 36.9957 6.6863C34.1287 4.44866 30.476 2.92481 26.4993 2.30744C22.5227 1.69008 18.4009 2.00693 14.655 3.21793C10.9091 4.42894 7.70744 6.4797 5.45487 9.11088C3.2023 11.7421 2 14.8355 2 18C2 20.6453 2.82 23.1396 4.27778 25.3369L2 34L13.0996 32.2222C15.9149 33.36 19.1129 34 22.5 34Z" stroke="white" stroke-width="3" stroke-linecap="round" stroke-linejoin="round"/>
</svg>
