<svg width="45" height="33" viewBox="0 0 45 33" fill="none" xmlns="http://www.w3.org/2000/svg">
<path d="M22.5 31C26.4556 31 30.3224 30.1496 33.6114 28.5563C36.9004 26.963 39.4638 24.6984 40.9776 22.0489C42.4913 19.3994 42.8874 16.4839 42.1157 13.6712C41.344 10.8585 39.4392 8.27482 36.6421 6.24696C33.8451 4.2191 30.2814 2.83811 26.4018 2.27862C22.5222 1.71913 18.5008 2.00628 14.8463 3.10375C11.1918 4.20122 8.06823 6.05972 5.87061 8.44424C3.67298 10.8287 2.5 13.6322 2.5 16.5C2.5 18.8973 3.3 21.1577 4.72222 23.1491L2.5 31L13.3289 29.3889C16.0756 30.42 19.1956 31 22.5 31Z" stroke="white" stroke-width="4" stroke-linecap="round" stroke-linejoin="round"/>
</svg>
