<svg width="73" height="58" viewBox="0 0 73 58" fill="none" xmlns="http://www.w3.org/2000/svg">
<path d="M36.5 54C42.9279 54 49.2114 52.5338 54.556 49.7867C59.9006 47.0397 64.0662 43.1352 66.5261 38.5671C68.9859 33.9989 69.6295 28.9723 68.3755 24.1228C67.1215 19.2732 64.0262 14.8187 59.4809 11.3223C54.9357 7.82603 49.1448 5.44501 42.8404 4.48038C36.536 3.51575 30.0014 4.01083 24.0628 5.90302C18.1242 7.79521 13.0484 10.9995 9.47724 15.1108C5.90609 19.222 4 24.0555 4 29C4 33.1333 5.3 37.0306 7.61111 40.4639L4 54L21.5969 51.2222C26.0603 53 31.1303 54 36.5 54Z" stroke="white" stroke-opacity="0.5" stroke-width="8" stroke-linecap="round" stroke-linejoin="round"/>
</svg>
