<svg width="38" height="38" viewBox="0 0 38 38" fill="none" xmlns="http://www.w3.org/2000/svg">
<path d="M24.214 12.2031C24.6339 12.2031 25.0365 12.3699 25.3335 12.6667C25.6303 12.9636 25.797 13.3662 25.797 13.7861C25.797 14.2059 25.6303 14.6086 25.3335 14.9055L21.239 19L25.3335 23.0945C25.6219 23.3931 25.7814 23.7931 25.7778 24.2082C25.7742 24.6233 25.6077 25.0205 25.3142 25.314C25.0206 25.6076 24.6235 25.7741 24.2084 25.7777C23.7932 25.7813 23.3933 25.6217 23.0946 25.3333L19.0001 21.2388L14.9056 25.3333C14.607 25.6217 14.2071 25.7813 13.7919 25.7777C13.3768 25.7741 12.9796 25.6076 12.686 25.314C12.3925 25.0205 12.226 24.6233 12.2224 24.2082C12.2188 23.7931 12.3784 23.3931 12.6668 23.0945L16.7613 19L12.6668 14.9055C12.3784 14.6069 12.2188 14.2069 12.2224 13.7918C12.226 13.3766 12.3925 12.9795 12.686 12.686C12.9796 12.3924 13.3768 12.2258 13.7919 12.2222C14.2071 12.2186 14.607 12.3783 14.9056 12.6667L19.0001 16.7612L23.0946 12.6667C23.3916 12.3699 23.7942 12.2031 24.214 12.2031Z" fill="#FF3B3B"/>
<path fill-rule="evenodd" clip-rule="evenodd" d="M19 0C24.0374 0.00544837 28.867 2.00896 32.429 5.57097C35.991 9.13298 37.9946 13.9626 38 19C38 22.7578 36.8857 26.4313 34.7979 29.5558C32.7102 32.6803 29.7428 35.1157 26.271 36.5537C22.7992 37.9918 18.9789 38.368 15.2933 37.6349C11.6076 36.9018 8.22215 35.0922 5.56496 32.435C2.90777 29.7778 1.0982 26.3924 0.365079 22.7067C-0.36804 19.0211 0.00825924 15.2008 1.44632 11.729C2.88439 8.25723 5.31966 5.28981 8.4442 3.20206C11.5687 1.11432 15.2422 2.08083e-06 19 0ZM25.0592 4.37187C22.166 3.17349 18.9824 2.85995 15.9111 3.47088C12.8397 4.08182 10.0185 5.5898 7.80413 7.80413C5.5898 10.0185 4.08182 12.8397 3.47089 15.9111C2.85996 18.9824 3.17356 22.166 4.37195 25.0592C5.57034 27.9523 7.59972 30.4251 10.2035 32.1649C12.8073 33.9047 15.8685 34.8333 19 34.8333C23.1978 34.8287 27.2225 33.1591 30.1908 30.1908C33.1591 27.2225 34.8287 23.1978 34.8333 19C34.8333 15.8685 33.9047 12.8073 32.1649 10.2035C30.4251 7.59971 27.9523 5.57026 25.0592 4.37187Z" fill="#FF3B3B"/>
</svg>
