<svg width="34" height="28" viewBox="0 0 34 28" fill="none" xmlns="http://www.w3.org/2000/svg">
<path d="M17 26C19.9667 26 22.8668 25.2962 25.3335 23.9776C27.8003 22.6591 29.7229 20.7849 30.8582 18.5922C31.9935 16.3995 32.2906 13.9867 31.7118 11.6589C31.133 9.33115 29.7044 7.19295 27.6066 5.51472C25.5088 3.83649 22.8361 2.6936 19.9264 2.23058C17.0166 1.76756 14.0006 2.0052 11.2597 2.91345C8.51886 3.8217 6.17618 5.35977 4.52796 7.33316C2.87973 9.30655 2 11.6266 2 14C2 15.984 2.6 17.8547 3.66667 19.5027L2 26L10.1217 24.6667C12.1817 25.52 14.5217 26 17 26Z" stroke="white" stroke-opacity="0.5" stroke-width="3" stroke-linecap="round" stroke-linejoin="round"/>
</svg>
