<svg width="192" height="192" viewBox="0 0 192 192" fill="none" xmlns="http://www.w3.org/2000/svg">
<path d="M95.8333 191.667C82.5764 191.667 70.1181 189.151 58.4583 184.12C46.7986 179.089 36.6563 172.26 28.0313 163.635C19.4063 155.01 12.5781 144.868 7.54688 133.208C2.51563 121.549 0 109.09 0 95.8333C0 82.5764 2.51563 70.1181 7.54688 58.4583C12.5781 46.7986 19.4063 36.6563 28.0313 28.0313C36.6563 19.4063 46.7986 12.5781 58.4583 7.54688C70.1181 2.51563 82.5764 0 95.8333 0C103.5 0 110.967 0.878472 118.234 2.63542C125.502 4.39236 132.49 6.94792 139.198 10.3021C141.594 11.5799 143.151 13.4965 143.87 16.0521C144.589 18.6076 144.149 21.0035 142.552 23.2396C140.955 25.4757 138.839 26.9132 136.203 27.5521C133.568 28.191 130.972 27.8715 128.417 26.5938C123.306 24.1979 117.995 22.3611 112.484 21.0833C106.974 19.8056 101.424 19.1667 95.8333 19.1667C74.5903 19.1667 56.5017 26.6337 41.5677 41.5677C26.6337 56.5017 19.1667 74.5903 19.1667 95.8333C19.1667 117.076 26.6337 135.165 41.5677 150.099C56.5017 165.033 74.5903 172.5 95.8333 172.5C117.076 172.5 135.165 165.033 150.099 150.099C165.033 135.165 172.5 117.076 172.5 95.8333C172.5 94.5556 172.46 93.3177 172.38 92.1198C172.3 90.9219 172.181 89.684 172.021 88.4063C171.701 85.691 172.22 83.0955 173.578 80.6198C174.936 78.1441 176.972 76.5069 179.688 75.7083C182.243 74.9097 184.639 75.1493 186.875 76.4271C189.111 77.7049 190.389 79.6215 190.708 82.1771C191.028 84.4132 191.267 86.6493 191.427 88.8854C191.587 91.1215 191.667 93.4375 191.667 95.8333C191.667 109.09 189.151 121.549 184.12 133.208C179.089 144.868 172.26 155.01 163.635 163.635C155.01 172.26 144.868 179.089 133.208 184.12C121.549 189.151 109.09 191.667 95.8333 191.667ZM82.4167 113.083L171.542 23.7188C173.299 21.9618 175.495 21.0434 178.13 20.9635C180.766 20.8837 183.042 21.8021 184.958 23.7188C186.715 25.4757 187.594 27.7118 187.594 30.4271C187.594 33.1424 186.715 35.3785 184.958 37.1354L89.125 133.208C87.2083 135.125 84.9722 136.083 82.4167 136.083C79.8611 136.083 77.625 135.125 75.7083 133.208L48.3958 105.896C46.6389 104.139 45.7604 101.903 45.7604 99.1875C45.7604 96.4722 46.6389 94.2361 48.3958 92.4792C50.1528 90.7222 52.3889 89.8438 55.1042 89.8438C57.8194 89.8438 60.0556 90.7222 61.8125 92.4792L82.4167 113.083Z" fill="#AAFF67"/>
</svg>
