<?xml version="1.0" encoding="UTF-8"?>
<svg width="52" height="52" fill="#000" version="1.1" viewBox="0 0 52 52" xmlns="http://www.w3.org/2000/svg">
 <path d="m40.3 11.7c-2.2-2.33-6.29-2.18-8.35 0.256-6.36 6.38-12.8 12.7-19.1 19.1-1.27 1.5-1.33 3.55-1.86 5.37-0.326 1.47-0.747 2.93-1.01 4.41 0.0682 1.4 1.6 1.22 2.54 0.89 2.32-0.579 4.66-1.05 6.96-1.71 1.71-0.739 2.79-2.33 4.14-3.55 5.63-5.63 11.3-11.3 16.9-16.9 2.04-2.17 1.95-5.82-0.196-7.89m-6.4 1.7c1.63-1.78 4.94-0.955 5.54 1.39 0.545 1.56-0.381 3.05-1.54 4.02-0.39 0.397-0.781 1.03-1.17 0.272-1.42-1.42-2.84-2.84-4.26-4.25 0.476-0.475 0.951-0.949 1.43-1.42zm-3.12 3.12c1.57 1.57 3.14 3.13 4.7 4.7-5.33 5.33-10.7 10.7-16 16-1.07 0.911-2.56 0.909-3.86 1.31-0.941 0.224-1.88 0.449-2.82 0.673 0.476-1.93 0.892-3.88 1.41-5.8 0.698-1.26 1.92-2.13 2.88-3.19 4.56-4.56 9.13-9.13 13.7-13.7z" stroke="#000" fill="#000"/>
</svg>
