<svg width="48" height="44" viewBox="0 0 48 44" fill="none" xmlns="http://www.w3.org/2000/svg">
<path d="M37.5 0H9.86842C7.25212 0.00313393 4.74386 1.04385 2.89386 2.89386C1.04385 4.74386 0.00313393 7.25212 0 9.86842L0 33.5526C0.00313393 36.1689 1.04385 38.6772 2.89386 40.5272C4.74386 42.3772 7.25212 43.4179 9.86842 43.4211H37.5C40.1163 43.4179 42.6246 42.3772 44.4746 40.5272C46.3246 38.6772 47.3653 36.1689 47.3684 33.5526V9.86842C47.3653 7.25212 46.3246 4.74386 44.4746 2.89386C42.6246 1.04385 40.1163 0.00313393 37.5 0ZM9.86842 3.94737H37.5C38.6818 3.94969 39.8359 4.30562 40.8137 4.96935C41.7916 5.63308 42.5484 6.57424 42.9868 7.67171L27.8724 22.7882C26.7601 23.896 25.2541 24.518 23.6842 24.518C22.1143 24.518 20.6084 23.896 19.4961 22.7882L4.38158 7.67171C4.82003 6.57424 5.57687 5.63308 6.5547 4.96935C7.53253 4.30562 8.68661 3.94969 9.86842 3.94737ZM37.5 39.4737H9.86842C8.29806 39.4737 6.79202 38.8499 5.6816 37.7395C4.57119 36.629 3.94737 35.123 3.94737 33.5526V12.8289L16.7053 25.5789C18.5578 27.4268 21.0676 28.4646 23.6842 28.4646C26.3008 28.4646 28.8106 27.4268 30.6632 25.5789L43.4211 12.8289V33.5526C43.4211 35.123 42.7972 36.629 41.6868 37.7395C40.5764 38.8499 39.0704 39.4737 37.5 39.4737Z" fill="#0069FF"/>
</svg>
