<svg width="231" height="231" viewBox="0 0 231 231" fill="none" xmlns="http://www.w3.org/2000/svg">
<rect x="4" y="4" width="223" height="223" rx="111.5" stroke="#FF3B3B" stroke-width="8"/>
<path d="M115.77 147.805C116.392 147.826 116.935 147.925 117.428 148.125C117.998 148.356 118.434 148.694 118.819 149.079L118.962 149.226C119.288 149.575 119.572 149.972 119.773 150.471C120.002 151.034 120.099 151.662 120.099 152.4L120.094 152.672C120.072 153.294 119.973 153.837 119.773 154.33C119.571 154.828 119.288 155.225 118.962 155.574L118.819 155.721C118.434 156.106 117.998 156.444 117.428 156.675C116.935 156.874 116.392 156.973 115.77 156.995L115.498 157C114.76 157 114.131 156.903 113.568 156.675C113.07 156.473 112.673 156.189 112.324 155.863L112.178 155.721C111.793 155.336 111.454 154.9 111.224 154.33C111.024 153.837 110.925 153.294 110.903 152.672L110.898 152.4C110.898 151.662 110.996 151.034 111.224 150.471C111.454 149.901 111.793 149.464 112.178 149.079L112.324 148.937C112.673 148.611 113.07 148.327 113.568 148.125C114.131 147.897 114.76 147.8 115.498 147.8L115.77 147.805Z" fill="#FF3B3B"/>
<path d="M115.77 74.0049C116.392 74.0265 116.935 74.1256 117.428 74.3252C117.998 74.556 118.434 74.8941 118.819 75.2793L118.962 75.4258C119.288 75.7749 119.571 76.1716 119.773 76.6699C120.002 77.233 120.099 77.8618 120.099 78.5996V129C120.099 129.738 120.002 130.367 119.773 130.93C119.571 131.428 119.288 131.825 118.962 132.174L118.819 132.32C118.434 132.706 117.998 133.044 117.428 133.274C116.935 133.474 116.392 133.573 115.77 133.595L115.498 133.6C114.76 133.6 114.131 133.503 113.568 133.274C113.07 133.072 112.673 132.789 112.324 132.463L112.178 132.32C111.793 131.935 111.454 131.499 111.224 130.93C110.995 130.367 110.898 129.738 110.898 129V78.5996C110.898 77.8618 110.995 77.233 111.224 76.6699C111.454 76.1004 111.793 75.6643 112.178 75.2793L112.324 75.1367C112.673 74.8109 113.07 74.5271 113.568 74.3252C114.131 74.097 114.76 74 115.498 74L115.77 74.0049Z" fill="#FF3B3B"/>
</svg>
