<svg width="232" height="231" viewBox="0 0 232 231" fill="none" xmlns="http://www.w3.org/2000/svg">
<rect x="4.5" y="4" width="223" height="223" rx="111.5" stroke="#FF3B3B" stroke-width="8"/>
<path d="M116.27 147.805C116.892 147.826 117.435 147.925 117.928 148.125C118.498 148.356 118.934 148.694 119.319 149.079L119.462 149.226C119.788 149.575 120.072 149.972 120.273 150.471C120.502 151.034 120.599 151.662 120.599 152.4L120.594 152.672C120.572 153.294 120.473 153.837 120.273 154.33C120.071 154.828 119.788 155.225 119.462 155.574L119.319 155.721C118.934 156.106 118.498 156.444 117.928 156.675C117.435 156.874 116.892 156.973 116.27 156.995L115.998 157C115.26 157 114.631 156.903 114.068 156.675C113.57 156.473 113.173 156.189 112.824 155.863L112.678 155.721C112.293 155.336 111.954 154.9 111.724 154.33C111.524 153.837 111.425 153.294 111.403 152.672L111.398 152.4C111.398 151.662 111.496 151.034 111.724 150.471C111.954 149.901 112.293 149.464 112.678 149.079L112.824 148.937C113.173 148.611 113.57 148.327 114.068 148.125C114.631 147.897 115.26 147.8 115.998 147.8L116.27 147.805Z" fill="#FF3B3B"/>
<path d="M116.27 74.0049C116.892 74.0265 117.435 74.1256 117.928 74.3252C118.498 74.556 118.934 74.8941 119.319 75.2793L119.462 75.4258C119.788 75.7749 120.071 76.1716 120.273 76.6699C120.502 77.233 120.599 77.8618 120.599 78.5996V129C120.599 129.738 120.502 130.367 120.273 130.93C120.071 131.428 119.788 131.825 119.462 132.174L119.319 132.32C118.934 132.706 118.498 133.044 117.928 133.274C117.435 133.474 116.892 133.573 116.27 133.595L115.998 133.6C115.26 133.6 114.631 133.503 114.068 133.274C113.57 133.072 113.173 132.789 112.824 132.463L112.678 132.32C112.293 131.935 111.954 131.499 111.724 130.93C111.495 130.367 111.398 129.738 111.398 129V78.5996C111.398 77.8618 111.495 77.233 111.724 76.6699C111.954 76.1004 112.293 75.6643 112.678 75.2793L112.824 75.1367C113.173 74.8109 113.57 74.5271 114.068 74.3252C114.631 74.097 115.26 74 115.998 74L116.27 74.0049Z" fill="#FF3B3B"/>
</svg>
