<svg width="60" height="60" viewBox="0 0 60 60" fill="none" xmlns="http://www.w3.org/2000/svg">
<path d="M25.8794 2.7202C27.7532 -0.906734 32.2496 -0.906734 34.1234 2.7202L59.2979 51.448C61.2384 55.2041 58.9269 60 55.1759 60H4.82399C1.07346 59.9994 -1.23841 55.2038 0.701975 51.448L25.8794 2.7202ZM30.8393 44.2086C29.9876 44.2088 29.267 44.4646 28.6772 44.9762C28.0871 45.4883 27.7925 46.1145 27.7924 46.8542C27.7924 47.5939 28.087 48.22 28.6772 48.7321C29.267 49.2437 29.9876 49.4995 30.8393 49.4997C31.6585 49.4997 32.3475 49.2437 32.9047 48.7321C33.4948 48.22 33.7924 47.5939 33.7924 46.8542C33.7924 46.1145 33.4948 45.4883 32.9047 44.9762C32.3475 44.4646 31.6585 44.2086 30.8393 44.2086ZM30.643 19.499C29.3229 19.4994 28.2635 20.5875 28.2963 21.9072L28.727 38.9672C28.7534 40.0064 29.6037 40.836 30.643 40.8364C31.6827 40.8364 32.5326 40.0066 32.559 38.9672L32.9926 21.9072C33.0254 20.5872 31.9635 19.499 30.643 19.499Z" fill="#FF3B3B"/>
</svg>
