<svg width="39" height="35" viewBox="0 0 39 35" fill="none" xmlns="http://www.w3.org/2000/svg">
<path d="M36.8528 13.3059C35.4234 10.9653 33.6204 8.87453 31.5154 7.11663L35.9487 2.68329C36.2371 2.38467 36.3967 1.98472 36.3931 1.56958C36.3895 1.15443 36.223 0.757311 35.9294 0.463748C35.6359 0.170185 35.2387 0.00366735 34.8236 5.98541e-05C34.4084 -0.00354764 34.0085 0.156044 33.7099 0.444461L28.8886 5.27204C25.8999 3.49684 22.4831 2.57161 19.007 2.59621C9.20462 2.59621 3.61862 9.30638 1.16129 13.3059C0.402125 14.5338 0 15.9488 0 17.3925C0 18.8361 0.402125 20.2512 1.16129 21.479C2.59065 23.8196 4.39365 25.9104 6.49871 27.6683L2.06537 32.1016C1.91415 32.2477 1.79353 32.4224 1.71055 32.6156C1.62756 32.8087 1.58389 33.0165 1.58206 33.2267C1.58023 33.437 1.62029 33.6455 1.6999 33.8401C1.77952 34.0346 1.89708 34.2114 2.04575 34.3601C2.19441 34.5088 2.37119 34.6263 2.56578 34.7059C2.76036 34.7855 2.96886 34.8256 3.17909 34.8238C3.38933 34.8219 3.59709 34.7783 3.79026 34.6953C3.98344 34.6123 4.15815 34.4917 4.30421 34.3405L9.13654 29.5081C12.1215 31.283 15.5343 32.2099 19.007 32.1887C28.8095 32.1887 34.3955 25.4785 36.8528 21.479C37.612 20.2512 38.0141 18.8361 38.0141 17.3925C38.0141 15.9488 37.612 14.5338 36.8528 13.3059ZM3.85929 19.8213C3.40825 19.0914 3.16935 18.2504 3.16935 17.3925C3.16935 16.5345 3.40825 15.6935 3.85929 14.9636C5.97146 11.5341 10.7452 5.76288 19.007 5.76288C21.6358 5.74815 24.2277 6.3817 26.5532 7.60746L23.366 10.7947C21.8459 9.7855 20.0234 9.33329 18.2078 9.51482C16.3923 9.69635 14.6954 10.5004 13.4052 11.7906C12.115 13.0808 11.3109 14.7777 11.1294 16.5932C10.9479 18.4088 11.4001 20.2313 12.4093 21.7514L8.75179 25.4089C6.81237 23.8409 5.15737 21.9508 3.85929 19.8213ZM23.757 17.3925C23.757 18.6522 23.2566 19.8604 22.3658 20.7512C21.475 21.642 20.2668 22.1425 19.007 22.1425C18.3017 22.1397 17.6061 21.9773 16.9725 21.6675L23.282 15.3579C23.5919 15.9915 23.7543 16.6871 23.757 17.3925ZM14.257 17.3925C14.257 16.1327 14.7575 14.9245 15.6483 14.0337C16.5391 13.1429 17.7473 12.6425 19.007 12.6425C19.7124 12.6452 20.408 12.8076 21.0416 13.1175L14.732 19.427C14.4222 18.7934 14.2598 18.0978 14.257 17.3925ZM34.1548 19.8213C32.0426 23.2508 27.2689 29.022 19.007 29.022C16.3783 29.0368 13.7864 28.4032 11.4609 27.1775L14.6481 23.9902C16.1682 24.9994 17.9907 25.4516 19.8063 25.2701C21.6218 25.0886 23.3187 24.2845 24.6089 22.9943C25.8991 21.7041 26.7032 20.0072 26.8847 18.1917C27.0662 16.3761 26.614 14.5537 25.6048 13.0335L29.2623 9.37604C31.2017 10.944 32.8567 12.8341 34.1548 14.9636C34.6058 15.6935 34.8447 16.5345 34.8447 17.3925C34.8447 18.2504 34.6058 19.0914 34.1548 19.8213Z" fill="#FF3B3B"/>
</svg>
