<svg width="46" height="42" viewBox="0 0 46 42" fill="none" xmlns="http://www.w3.org/2000/svg">
<path d="M37.4167 2H8.25C5.30373 2 3.83058 2 2.91529 2.85875C2 3.7175 2 5.09962 2 7.86387V9.301C2 11.4632 2 12.5442 2.54083 13.4405C3.08167 14.3367 4.06973 14.8929 6.04587 16.0053L12.1147 19.4217C13.4405 20.1679 14.1035 20.5412 14.5781 20.9533C15.5666 21.8115 16.1752 22.8198 16.4509 24.0567C16.5833 24.6504 16.5833 25.3454 16.5833 26.7352V32.2967C16.5833 34.1917 16.5833 35.139 17.1082 35.8777C17.633 36.6162 18.5652 36.9806 20.4296 37.7096C24.3433 39.2396 26.3002 40.0046 27.6919 39.1342C29.0833 38.2638 29.0833 36.2748 29.0833 32.2967V26.7352C29.0833 25.3454 29.0833 24.6504 29.2158 24.0567C29.4915 22.8198 30.1 21.8115 31.0885 20.9533C31.5631 20.5412 32.226 20.1679 33.5521 19.4217L39.6208 16.0053C41.5969 14.8929 42.585 14.3367 43.1258 13.4405C43.6667 12.5442 43.6667 11.4632 43.6667 9.301V7.86387C43.6667 5.09962 43.6667 3.7175 42.7515 2.85875C41.836 2 40.3629 2 37.4167 2Z" stroke="white" stroke-width="4"/>
</svg>
