<svg width="40" height="73" viewBox="0 0 40 73" fill="none" xmlns="http://www.w3.org/2000/svg">
<path id="Vector" d="M3.38 17.7042C0.309922 16.4158 -0.994861 12.6642 0.847186 9.93579C4.56966 4.47895 10.7866 0.5 18.999 0.5C28.0174 0.5 34.1959 4.55474 37.3427 9.63263C40.0291 13.9905 41.6025 22.1379 37.4579 28.2011C32.8527 34.9084 28.4395 36.9547 26.0602 41.2747C25.4846 42.2979 25.1392 43.1316 24.9089 44.8368C24.5635 47.6032 22.261 49.7632 19.4212 49.7632C16.0824 49.7632 13.3578 46.9211 13.7415 43.6242C13.9718 41.6916 14.4323 39.6832 15.5068 37.7884C18.4618 32.5211 24.1414 29.4137 27.4417 24.7526C30.9339 19.8642 28.9768 10.7316 19.0758 10.7316C14.5858 10.7316 11.6692 13.0432 9.86554 15.8095C8.52238 17.9695 5.72093 18.6516 3.38 17.7042ZM26.7126 64.9211C26.7126 69.0895 23.2588 72.5 19.0374 72.5C14.816 72.5 11.3622 69.0895 11.3622 64.9211C11.3622 60.7526 14.816 57.3421 19.0374 57.3421C23.2588 57.3421 26.7126 60.7526 26.7126 64.9211Z" fill="#77AFFF"/>
</svg>
