<svg width="72" height="63" viewBox="0 0 72 63" fill="none" xmlns="http://www.w3.org/2000/svg">
<path id="Vector" d="M69 49L56.9257 37.4745C56.2381 36.8184 55.3056 36.4497 54.3333 36.4497C53.3611 36.4497 52.4286 36.8184 51.741 37.4745L49.5923 39.5255C48.9047 40.1816 47.9723 40.5503 47 40.5503C46.0277 40.5503 45.0953 40.1816 44.4077 39.5255L33.8513 29.449C32.4761 28.1367 30.6112 27.3995 28.6667 27.3995C26.7221 27.3995 24.8572 28.1367 23.482 29.449L3 49M69 7V56C69 56.9283 68.6137 57.8185 67.9261 58.4749C67.2384 59.1313 66.3058 59.5 65.3333 59.5H6.66667C5.69421 59.5 4.76158 59.1313 4.07394 58.4749C3.38631 57.8185 3 56.9283 3 56V7C3 6.07174 3.38631 5.1815 4.07394 4.52513C4.76158 3.86875 5.69421 3.5 6.66667 3.5H65.3333C66.3058 3.5 67.2384 3.86875 67.9261 4.52513C68.6137 5.1815 69 6.07174 69 7ZM50.6667 17.5C50.6667 18.4283 50.2804 19.3185 49.5927 19.9749C48.9051 20.6313 47.9725 21 47 21C46.0275 21 45.0949 20.6313 44.4073 19.9749C43.7196 19.3185 43.3333 18.4283 43.3333 17.5C43.3333 16.5717 43.7196 15.6815 44.4073 15.0251C45.0949 14.3687 46.0275 14 47 14C47.9725 14 48.9051 14.3687 49.5927 15.0251C50.2804 15.6815 50.6667 16.5717 50.6667 17.5Z" stroke="#77AFFF" stroke-width="6" stroke-linecap="round" stroke-linejoin="round"/>
</svg>
