<svg width="68" height="69" viewBox="0 0 68 69" fill="none" xmlns="http://www.w3.org/2000/svg">
<path id="Vector" d="M65.0868 0.5H18.4473C17.6749 0.500248 16.9343 0.814986 16.3882 1.37503C15.8421 1.93507 15.5352 2.69458 15.535 3.4866V48.4202C14.4746 48.1781 13.3918 48.0547 12.3055 48.0519C5.5092 48.0519 0 52.6285 0 58.2764C0 63.9234 5.5092 68.5 12.3055 68.5C19.1008 68.5 24.6109 63.9234 24.6109 58.2764V15.1105H58.924V39.7894C57.8637 39.5474 56.7808 39.4239 55.6945 39.4211C48.8983 39.4211 43.3891 43.9978 43.3891 49.6456C43.3891 55.2935 48.8983 59.8692 55.6945 59.8692C62.4899 59.8692 68 55.2926 68 49.6456V3.48753C67.9998 2.69527 67.6928 1.93552 67.1465 1.3753C66.6002 0.815084 65.8594 0.500248 65.0868 0.5Z" fill="#77AFFF"/>
</svg>
