<svg width="68" height="73" viewBox="0 0 68 73" fill="none" xmlns="http://www.w3.org/2000/svg">
<path id="Vector" d="M49.1111 43.7H18.8889C17.887 43.7 16.9261 44.0793 16.2176 44.7544C15.5091 45.4295 15.1111 46.3452 15.1111 47.3C15.1111 48.2548 15.5091 49.1705 16.2176 49.8456C16.9261 50.5207 17.887 50.9 18.8889 50.9H49.1111C50.113 50.9 51.0739 50.5207 51.7824 49.8456C52.4909 49.1705 52.8889 48.2548 52.8889 47.3C52.8889 46.3452 52.4909 45.4295 51.7824 44.7544C51.0739 44.0793 50.113 43.7 49.1111 43.7ZM49.1111 29.3H26.4444C25.4425 29.3 24.4816 29.6793 23.7731 30.3544C23.0647 31.0295 22.6667 31.9452 22.6667 32.9C22.6667 33.8548 23.0647 34.7705 23.7731 35.4456C24.4816 36.1207 25.4425 36.5 26.4444 36.5H49.1111C50.113 36.5 51.0739 36.1207 51.7824 35.4456C52.4909 34.7705 52.8889 33.8548 52.8889 32.9C52.8889 31.9452 52.4909 31.0295 51.7824 30.3544C51.0739 29.6793 50.113 29.3 49.1111 29.3ZM64.2222 7.7H52.8889V4.1C52.8889 3.14522 52.4909 2.22955 51.7824 1.55442C51.0739 0.879285 50.113 0.5 49.1111 0.5C48.1092 0.5 47.1483 0.879285 46.4398 1.55442C45.7313 2.22955 45.3333 3.14522 45.3333 4.1V7.7H37.7778V4.1C37.7778 3.14522 37.3798 2.22955 36.6713 1.55442C35.9628 0.879285 35.0019 0.5 34 0.5C32.9981 0.5 32.0372 0.879285 31.3287 1.55442C30.6202 2.22955 30.2222 3.14522 30.2222 4.1V7.7H22.6667V4.1C22.6667 3.14522 22.2687 2.22955 21.5602 1.55442C20.8517 0.879285 19.8908 0.5 18.8889 0.5C17.887 0.5 16.9261 0.879285 16.2176 1.55442C15.5091 2.22955 15.1111 3.14522 15.1111 4.1V7.7H3.77778C2.77585 7.7 1.81496 8.07929 1.10649 8.75442C0.398015 9.42955 0 10.3452 0 11.3V61.7C0 64.5643 1.19404 67.3114 3.31946 69.3368C5.44487 71.3622 8.32755 72.5 11.3333 72.5H56.6667C59.6725 72.5 62.5551 71.3622 64.6805 69.3368C66.806 67.3114 68 64.5643 68 61.7V11.3C68 10.3452 67.602 9.42955 66.8935 8.75442C66.185 8.07929 65.2241 7.7 64.2222 7.7ZM60.4444 61.7C60.4444 62.6548 60.0464 63.5705 59.338 64.2456C58.6295 64.9207 57.6686 65.3 56.6667 65.3H11.3333C10.3314 65.3 9.37051 64.9207 8.66204 64.2456C7.95357 63.5705 7.55556 62.6548 7.55556 61.7V14.9H15.1111V18.5C15.1111 19.4548 15.5091 20.3705 16.2176 21.0456C16.9261 21.7207 17.887 22.1 18.8889 22.1C19.8908 22.1 20.8517 21.7207 21.5602 21.0456C22.2687 20.3705 22.6667 19.4548 22.6667 18.5V14.9H30.2222V18.5C30.2222 19.4548 30.6202 20.3705 31.3287 21.0456C32.0372 21.7207 32.9981 22.1 34 22.1C35.0019 22.1 35.9628 21.7207 36.6713 21.0456C37.3798 20.3705 37.7778 19.4548 37.7778 18.5V14.9H45.3333V18.5C45.3333 19.4548 45.7313 20.3705 46.4398 21.0456C47.1483 21.7207 48.1092 22.1 49.1111 22.1C50.113 22.1 51.0739 21.7207 51.7824 21.0456C52.4909 20.3705 52.8889 19.4548 52.8889 18.5V14.9H60.4444V61.7Z" fill="#77AFFF"/>
</svg>
