<svg width="76" height="55" viewBox="0 0 76 55" fill="none" xmlns="http://www.w3.org/2000/svg">
<path id="Vector" d="M4 43.1522V11.8478C4 9.63385 4.79603 7.51054 6.21297 5.94502C7.62991 4.3795 9.5517 3.5 11.5556 3.5H43.6667C45.6705 3.5 47.5923 4.3795 49.0092 5.94502C50.4262 7.51054 51.2222 9.63385 51.2222 11.8478V43.1522C51.2222 45.3662 50.4262 47.4895 49.0092 49.055C47.5923 50.6205 45.6705 51.5 43.6667 51.5H11.5556C9.5517 51.5 7.62991 50.6205 6.21297 49.055C4.79603 47.4895 4 45.3662 4 43.1522ZM68.8569 6.59287L53.7458 21.4645C53.5466 21.6599 53.3871 21.8996 53.2777 22.168C53.1684 22.4363 53.1116 22.7271 53.1111 23.0214V30.4426C53.1116 30.7369 53.1684 31.0277 53.2777 31.296C53.3871 31.5644 53.5466 31.8041 53.7458 31.9995L68.8569 46.8711C69.1291 47.1383 69.4655 47.3127 69.8254 47.3736C70.1853 47.4344 70.5535 47.3791 70.8856 47.2141C71.2176 47.0492 71.4995 46.7817 71.6972 46.4439C71.895 46.1061 72.0001 45.7124 72 45.3101V8.15391C72.0001 7.75163 71.895 7.35789 71.6972 7.02008C71.4995 6.68228 71.2176 6.41481 70.8856 6.24987C70.5535 6.08494 70.1853 6.02956 69.8254 6.09041C69.4655 6.15127 69.1291 6.32575 68.8569 6.59287Z" stroke="#77AFFF" stroke-width="7" stroke-linecap="round" stroke-linejoin="round"/>
</svg>
