<svg width="72" height="61" viewBox="0 0 72 61" fill="none" xmlns="http://www.w3.org/2000/svg">
<path id="Vector" d="M61.0822 2.02375C74.9726 17.7336 74.9725 43.2207 61.0823 58.9264L61.0822 58.9266C60.495 59.591 59.7125 59.9505 58.9116 59.9508C58.1108 59.9511 57.3281 59.5923 56.7405 58.9283C56.1512 58.2624 55.8112 57.3473 55.8109 56.3819C55.8106 55.4166 56.1499 54.5012 56.7389 53.8348M61.0822 2.02375L61.4568 1.69255L61.0822 2.02375ZM61.0822 2.02375C60.4946 1.35931 59.7118 1 58.9106 1C58.1093 1 57.3265 1.35936 56.7388 2.02379C56.1494 2.69022 55.8096 3.60589 55.8096 4.57162C55.8096 5.53735 56.1494 6.45302 56.7388 7.11945L56.7389 7.11948C62.2252 13.324 65.2986 21.7267 65.2986 30.4771C65.2986 39.2276 62.2252 47.6303 56.7389 53.8348M56.7389 53.8348L56.3643 53.5036L56.7389 53.8348ZM25.9384 18.8107C24.5852 20.3406 23.5145 22.1538 22.7849 24.1453C22.0553 26.1368 21.6803 28.2695 21.6803 30.4222C21.6803 32.5749 22.0553 34.7076 22.7849 36.6991C23.5144 38.6905 24.5851 40.5037 25.9383 42.0336C26.2294 42.363 26.4631 42.7572 26.6233 43.1951C26.7835 43.633 26.8665 44.104 26.8664 44.5808C26.8662 45.0576 26.7829 45.5285 26.6224 45.9663C26.4619 46.404 26.228 46.798 25.9367 47.1272C25.6455 47.4562 25.3032 47.7135 24.9311 47.8875C24.5593 48.0615 24.1635 48.1498 23.7656 48.1497C23.3677 48.1495 22.9719 48.0609 22.6002 47.8866C22.2283 47.7122 21.8861 47.4547 21.5951 47.1254L21.5949 47.1253C17.6854 42.7046 15.4803 36.6972 15.4803 30.4222C15.4803 24.1473 17.6854 18.1398 21.5949 13.7191L21.5951 13.7189C21.8862 13.3894 22.2286 13.1317 22.6007 12.9573C22.9726 12.783 23.3686 12.6944 23.7667 12.6944C24.1648 12.6944 24.5608 12.783 24.9326 12.9573C25.3048 13.1317 25.6471 13.3894 25.9382 13.7189L25.9384 13.7191C26.5272 14.385 26.8667 15.3 26.8667 16.2649C26.8667 17.2298 26.5272 18.1447 25.9384 18.8107ZM25.9384 18.8107L26.3129 19.142M25.9384 18.8107C25.9384 18.8107 25.9384 18.8107 25.9384 18.8108L26.3129 19.142M26.3129 19.142C26.9876 18.3788 27.3667 17.344 27.3667 16.2649C27.3667 15.1859 26.9876 14.151 26.3129 13.3879M26.3129 19.142C25.0027 20.6232 23.9634 22.3818 23.2543 24.3173C22.5453 26.2528 22.1803 28.3272 22.1803 30.4222C22.1803 32.5172 22.5453 34.5916 23.2543 36.5271C23.9634 38.4626 25.0027 40.2212 26.3129 41.7025C26.6471 42.0806 26.9121 42.5293 27.0928 43.0232C27.2736 43.5171 27.3665 44.0464 27.3664 44.5809C27.3662 45.1154 27.2729 45.6447 27.0919 46.1384C26.9108 46.6322 26.6455 47.0808 26.3111 47.4586C25.9768 47.8364 25.5798 48.136 25.143 48.3404C24.7062 48.5448 24.2381 48.6499 23.7654 48.6497C23.2927 48.6495 22.8246 48.544 22.3879 48.3393C21.9513 48.1346 21.5545 47.8346 21.2204 47.4565L26.3129 13.3879M26.3129 13.3879C25.9787 13.0095 25.5818 12.7094 25.1449 12.5046C24.7079 12.2998 24.2396 12.1944 23.7667 12.1944C23.2937 12.1944 22.8254 12.2998 22.3885 12.5046C21.9516 12.7094 21.5546 13.0095 21.2204 13.3879H26.3129ZM15.2603 2.02385L15.2605 2.024C15.552 2.35325 15.786 2.74746 15.9465 3.18541C16.1071 3.62338 16.1903 4.09458 16.1903 4.57162C16.1903 5.04866 16.1071 5.51986 15.9465 5.95783C15.786 6.39579 15.552 6.78999 15.2605 7.11924L15.2602 7.11948C9.77387 13.324 6.70045 21.7267 6.70045 30.4771C6.70045 39.2276 9.77387 47.6303 15.2602 53.8348L15.2602 53.8349L15.266 53.8413C15.5652 54.168 15.8068 54.5621 15.9739 55.0021C16.1411 55.4421 16.2297 55.9171 16.2334 56.3991C16.2371 56.8811 16.1558 57.358 15.9954 57.8014C15.8349 58.2449 15.5993 58.644 15.3049 58.9769L15.6296 59.2641L15.3049 58.9769C15.0106 59.3096 14.6641 59.569 14.2874 59.7432L14.4974 60.197L14.2874 59.7432C13.9111 59.9173 13.5104 60.0038 13.1082 59.9999C12.706 59.9959 12.3065 59.9015 11.9325 59.7199C11.5583 59.5381 11.2155 59.2717 10.9261 58.9329L10.9261 58.9329L10.9204 58.9264C-2.97345 43.2206 -2.97346 17.7296 10.9204 2.02385C11.5076 1.36007 12.2898 1.0011 13.0903 1.0011C13.8909 1.0011 14.6731 1.36007 15.2603 2.02385ZM48.8279 12.7457C49.6183 12.7379 50.3934 13.0802 50.983 13.7225C54.8907 18.1429 57.0946 24.1489 57.0946 30.4222C57.0946 36.6956 54.8907 42.7016 50.983 47.1219C50.3934 47.7642 49.6183 48.1065 48.8279 48.0987C48.0362 48.091 47.2646 47.7322 46.684 47.0757C46.1017 46.4173 45.7628 45.5151 45.7554 44.561C45.7481 43.6084 46.0721 42.7004 46.6431 42.0303C47.995 40.5011 49.0646 38.6891 49.7937 36.6991C50.5233 34.7076 50.8982 32.5749 50.8982 30.4222C50.8982 28.2695 50.5233 26.1368 49.7937 24.1453C49.0646 22.1553 47.995 20.3433 46.6431 18.8141C46.0721 18.144 45.7481 17.236 45.7554 16.2834C45.7628 15.3293 46.1017 14.4271 46.684 13.7687C47.2646 13.1122 48.0362 12.7535 48.8279 12.7457ZM36.2893 25.16C37.5672 25.16 38.8073 25.7335 39.732 26.7791C40.6585 27.8267 41.1877 29.2593 41.1877 30.764C41.1877 32.2688 40.6585 33.7014 39.732 34.749C38.8073 35.7946 37.5672 36.3681 36.2893 36.3681C35.0113 36.3681 33.7712 35.7946 32.8465 34.749C31.92 33.7014 31.3908 32.2688 31.3908 30.764C31.3908 29.2593 31.92 27.8267 32.8465 26.7791C33.7712 25.7335 35.0113 25.16 36.2893 25.16Z" fill="#77AFFF" stroke="#77AFFF"/>
</svg>
