<svg fill="none" viewBox="0 0 32 32" xmlns="http://www.w3.org/2000/svg"><path d="m2.05 0.812c-1.17-1.15-2.89 0.922-1.5 1.83 0.863 0.837 1.73 1.67 2.59 2.51-1.99 0.181-3.39 2.15-3.13 4.08 0.0115 3.78-0.0232 7.57 0.0176 11.4 0.159 2.05 2.26 3.39 4.2 3.14h18.1c0.796 0.773 1.59 1.55 2.39 2.32-6.95 0.0182-13.9 0.0026-20.8 0.0078 0.997 1.78 3.11 2.49 5.05 2.33 5.37-0.0148 10.7 0.0299 16.1-0.023 1.01-0.187 1.95-0.556 2.56 0.474 0.935 0.842 1.75 1.84 2.77 2.57 1.44 0.627 2.3-1.53 0.986-2.22-9.76-9.46-19.5-18.9-29.3-28.4zm17.8 20.6h-12.7c0.0723-1.4-0.0685-2.98-1.32-3.86-0.967-0.848-2.28-0.809-3.48-0.79v-4.65c1.55 0.0926 3.32-0.124 4.21-1.58 0.453-0.983 0.508-1.85 1.33-0.715 0.616 0.598 1.23 1.2 1.85 1.79-1.74 2.05-1.07 5.47 1.26 6.77 1.65 1.03 3.92 0.928 5.47-0.249 1.13 1.09 2.26 2.19 3.39 3.28zm-8.38-8.13 3.27 3.17c-1.56 0.971-3.86-0.425-3.57-2.28 0.036-0.315 0.139-0.621 0.3-0.894m-9.11-4.66c0.00958-1.18 1.3-1.23 2.18-1.16 0.468 0.107 0.156 1.16 0.128 1.61-0.398 0.937-1.5 0.684-2.31 0.718v-1.16zm1.2 12.8c-1.18 0.0176-1.28-1.26-1.2-2.14 0.17-0.413 1.21-0.115 1.66-0.0943 0.946 0.357 0.715 1.45 0.74 2.24h-1.2zm20-4.65c-0.98-0.0623-1.81 0.31-0.715 0.965 0.506 0.433 0.944 1.03 1.49 1.36 0.682-0.17 0.268 0.796 0.933 0.992 0.532 0.515 1.06 1.03 1.6 1.55 0.506-1.47 0.212-3.05 0.291-4.58-0.0114-2.92 0.023-5.85-0.0176-8.77-0.159-2.05-2.26-3.39-4.2-3.14h-13.1c0.8 0.775 1.6 1.55 2.4 2.33h7.71c-0.0724 1.4 0.0686 2.98 1.32 3.86 0.967 0.848 2.28 0.809 3.48 0.79v4.65h-1.2zm1.2-8.14c-0.107 0.429 0.317 1.39-0.446 1.16-0.888 0.133-2.1-0.217-1.95-1.34-0.00964-0.546-0.172-1.24 0.624-0.985 0.795-0.0892 1.78 0.181 1.78 1.16zm4.1 14.9c0.578 0.561 1.16 1.12 1.74 1.68 1.33-1.68 1.43-3.86 1.36-5.9-0.024-2.35 0.0502-4.71-0.0411-7.06-0.0236-1.24-1.55-3.44-2.36-3.15-0.0071 4.08 0.0144 8.16-0.0109 12.2-0.051 0.773-0.291 1.53-0.69 2.2z" fill="#fffafa"/></svg>