<svg width="50" height="52" viewBox="0 0 50 52" fill="none" xmlns="http://www.w3.org/2000/svg">
<path d="M48.0846 17.8499L47.9362 16.6749C47.8041 15.6292 47.2057 14.6994 46.3086 14.1459L25.5251 1.32392C25.2032 1.12535 24.7968 1.12535 24.4749 1.32392L3.69139 14.1459C2.79429 14.6994 2.19591 15.6292 2.06379 16.6749L1.91535 17.8499C0.643505 27.917 0.643506 38.1042 1.91535 48.1713C2.11958 49.7878 3.49455 51 5.12396 51H17.6123V28.6455H31.4574L31.9444 51H44.876C46.5055 51 47.8804 49.7878 48.0846 48.1713C49.3565 38.1042 49.3565 27.917 48.0846 17.8499Z" fill="white" stroke="white" stroke-linejoin="round"/>
</svg>
