<svg width="36" height="37" viewBox="0 0 36 37" fill="none" xmlns="http://www.w3.org/2000/svg">
<g id="Group">
<path id="Vector" d="M18.0004 36.2777C27.8188 36.2777 35.7782 28.3183 35.7782 18.4999C35.7782 8.68155 27.8188 0.722168 18.0004 0.722168C8.18204 0.722168 0.222656 8.68155 0.222656 18.4999C0.222656 28.3183 8.18204 36.2777 18.0004 36.2777Z" fill="#F7931A"/>
<path id="Vector_2" d="M25.9884 16.2999C26.3372 13.971 24.5628 12.7188 22.1384 11.8832L22.925 8.72768L21.005 8.24991L20.2384 11.3221C19.7339 11.1955 19.2161 11.0777 18.6995 10.9599L19.4717 7.86768L17.5517 7.38879L16.765 10.5432C16.3465 10.4492 15.9376 10.3529 15.5384 10.2543L15.5406 10.2443L12.8917 9.58324L12.3806 11.6343C12.3806 11.6343 13.8061 11.961 13.7761 11.981C14.5539 12.1755 14.6939 12.6899 14.6706 13.0988L13.775 16.6932C13.8291 16.7058 13.8958 16.7269 13.975 16.7566L13.7717 16.7066L12.5161 21.7421C12.4206 21.9777 12.1795 22.3321 11.635 22.1977C11.655 22.2255 10.2395 21.8499 10.2395 21.8499L9.28613 24.0477L11.7861 24.671C12.2506 24.7877 12.7061 24.9099 13.1539 25.0243L12.3595 28.2155L14.2784 28.6932L15.065 25.5377C15.5887 25.6784 16.0991 25.8106 16.5961 25.9343L15.8117 29.0766L17.7317 29.5543L18.5261 26.3699C21.8017 26.9899 24.2639 26.7399 25.3006 23.7777C26.1361 21.3932 25.2595 20.0166 23.5361 19.1199C24.7917 18.831 25.7361 18.0055 25.9884 16.2999ZM21.5995 22.4532C21.0072 24.8388 16.9906 23.5488 15.6884 23.2255L16.7439 18.9977C18.0461 19.3232 22.2206 19.9666 21.5995 22.4532ZM22.1939 16.2655C21.6528 18.4355 18.3106 17.3321 17.2272 17.0621L18.1828 13.2288C19.2661 13.4988 22.7584 14.0021 22.1939 16.2655Z" fill="#FFFAFA"/>
</g>
</svg>
