<svg width="40" height="41" viewBox="0 0 40 41" fill="none" xmlns="http://www.w3.org/2000/svg">
<g id="Icon">
<path id="Vector" d="M11.212 13.2778C10.2398 13.2778 9.44434 14.0834 9.44434 15.068V25.8087C9.44434 27.7778 11.0352 29.3889 12.9797 29.3889H27.1211C28.0933 29.3889 28.8888 28.5834 28.8888 27.5988C28.8888 26.6143 28.0933 25.8087 27.1211 25.8087H12.9797V15.068C12.9797 14.0834 12.1842 13.2778 11.212 13.2778Z" fill="#FFFAFA"/>
<path id="Vector_2" d="M34.2227 4.38892H20.0004C18.0449 4.38892 16.4449 6.00003 16.4449 7.96916V18.7099C16.4449 20.679 18.0449 22.2901 20.0004 22.2901H34.2227C36.1782 22.2901 37.7782 20.679 37.7782 18.7099V7.96916C37.7782 6.00003 36.1782 4.38892 34.2227 4.38892ZM34.2227 18.7099H20.0004V11.5494H34.2227V18.7099ZM4.00043 20.5C3.02266 20.5 2.22266 21.3056 2.22266 22.2901V33.0309C2.22266 35 3.82266 36.6111 5.77821 36.6111H20.0004C20.9782 36.6111 21.7782 35.8056 21.7782 34.821C21.7782 33.8364 20.9782 33.0309 20.0004 33.0309H5.77821V22.2901C5.77821 21.3056 4.97821 20.5 4.00043 20.5Z" fill="#FFFAFA"/>
</g>
</svg>
