<svg class="none">
    <symbol id="post-comment" viewBox="0 0 44 45">
        <path d="m4.4 33c0.092-0.449 0.0274-0.915-0.183-1.32-1.42-2.74-2.22-5.86-2.22-9.17 0-3.96 1.17-7.82 3.37-11.1 2.2-3.29 5.32-5.85 8.98-7.37s7.68-1.91 11.6-1.14c3.88 0.772 7.44 2.68 10.2 5.47 2.8 2.8 4.7 6.36 5.47 10.2s0.376 7.9-1.14 11.6c-1.51 3.65-4.08 6.78-7.37 8.98s-7.16 3.37-11.1 3.37c-3.31 0-6.43-0.8-9.17-2.22-0.407-0.21-0.873-0.275-1.32-0.183l-8.94 1.83 1.83-8.94z"
              fill="none"
              stroke="#FFFAFA"
              stroke-linecap="round"
              stroke-linejoin="round"
              stroke-width="4" />
    </symbol>
    <symbol id="post-like" viewBox="0 0 48 45">
        <path id="mener"
              d="m34.3 2.5c-4.5 0-8.38 2.66-10.3 6.54-1.95-3.88-5.83-6.54-10.3-6.54-6.45 0-11.7 5.46-11.7 12.2s4 12.9 9.16 17.9 12.8 9.88 12.8 9.88 7.42-4.74 12.8-9.88c5.78-5.48 9.16-11.2 9.16-17.9s-5.22-12.2-11.7-12.2z"
              stroke-linecap="round"
              stroke-linejoin="round"
              stroke-width="4" />
    </symbol>
    <symbol id="post-view" fill="none" viewBox="0 0 56 39">
        <g stroke="#FFFAFA" stroke-linecap="round" stroke-linejoin="round" stroke-width="4">
            <path d="m36.4 19.5c0 2.22-0.885 4.34-2.46 5.91s-3.71 2.45-5.94 2.45-4.36-0.88-5.94-2.45-2.46-3.69-2.46-5.91c0-2.22 0.885-4.34 2.46-5.91 1.58-1.57 3.71-2.45 5.94-2.45s4.36 0.88 5.94 2.45c1.58 1.57 2.46 3.69 2.46 5.91z" />
            <path d="m28 37c-11.9 0-21.5-7.17-25.8-17.5 4.36-10.3 14-17.5 25.8-17.5s21.5 7.17 25.8 17.5c-4.36 10.3-14 17.5-25.8 17.5z" />
        </g>
    </symbol>
    <symbol id="multi" viewBox="0 0 100 100">
        <g fill="none" stroke="#00bdff" stroke-linejoin="round" stroke-width="9">
            <rect x="10" y="10" width="65" height="65" />
            <rect x="25" y="25" width="65" height="65" />
        </g>
    </symbol>
    <symbol id="lupe" viewBox="0 0 42 40" fill="none">
        <path id="Vector" d="M30.7973 25.7963H28.8511L28.1613 25.1632C29.7009 23.4608 30.8261 21.4555 31.4564 19.2909C32.0867 17.1263 32.2065 14.8558 31.8073 12.6419C30.6494 6.12333 24.9341 0.917852 18.0363 0.120616C15.6113 -0.171393 13.1482 0.068495 10.8356 0.821924C8.52296 1.57535 6.42205 2.82235 4.69363 4.4675C2.96521 6.11265 1.65509 8.11235 0.863526 10.3136C0.0719619 12.5148 -0.180068 14.8592 0.126721 17.1674C0.96431 23.7329 6.43327 29.1728 13.2818 30.2749C15.6077 30.6549 17.9931 30.5408 20.2673 29.9409C22.5415 29.3409 24.6483 28.27 26.4369 26.8046L27.102 27.4611V29.3135L37.5719 39.279C38.5819 40.2403 40.2324 40.2403 41.2425 39.279C42.2525 38.3176 42.2525 36.7466 41.2425 35.7852L30.7973 25.7963ZM16.0163 25.7963C9.88217 25.7963 4.93054 21.0832 4.93054 15.2447C4.93054 9.40607 9.88217 4.693 16.0163 4.693C22.1504 4.693 27.102 9.40607 27.102 15.2447C27.102 21.0832 22.1504 25.7963 16.0163 25.7963Z" fill="#fff" />
    </symbol>
    <symbol id="steigend" fill="none" viewBox="0 0 29 30">
        <path d="m27 27.5v-25m-23.5 23.5 23.5-23.5m-25 0h25"
              stroke="#AAFF67"
              stroke-linecap="round"
              stroke-linejoin="round"
              stroke-width="4" />
    </symbol>
    <symbol id="noname" viewBox="0 0 100 100">
        <g fill="#00bdff">
            <path d="m15 100c12.1-27.2 22.6-52.5 35-52.5s22.5 25.3 35.3 52.5" />
            <circle cx="50" cy="28.7" r="16.2" />
        </g>
    </symbol>
    <symbol id="profile"
            viewBox="0 0 42 41"
            fill="none"
            stroke="white"
            stroke-width="2"
            stroke-linecap="round"
            stroke-linejoin="round">
        <path d="M19.8906 1C24.8576 1 28.8904 5.04215 28.8906 10.0361C28.8906 15.0303 24.8578 19.0732 19.8906 19.0732C14.9235 19.0732 10.8906 15.0303 10.8906 10.0361C10.8908 5.04215 14.9236 1 19.8906 1Z" />
        <path d="M1 40C8.53595 22.3519 33.464 22.3519 41 40" />
    </symbol>
    <symbol id="dashboard" viewBox="0 0 40 41">
        <g fill="#FFFAFA">
            <path d="M11.212 13.2778C10.2398 13.2778 9.44434 14.0834 9.44434 15.068V25.8087C9.44434 27.7778 11.0352 29.3889 12.9797 29.3889H27.1211C28.0933 29.3889 28.8888 28.5834 28.8888 27.5988C28.8888 26.6143 28.0933 25.8087 27.1211 25.8087H12.9797V15.068C12.9797 14.0834 12.1842 13.2778 11.212 13.2778Z" />
            <path d="M34.2227 4.38892H20.0004C18.0449 4.38892 16.4449 6.00003 16.4449 7.96916V18.7099C16.4449 20.679 18.0449 22.2901 20.0004 22.2901H34.2227C36.1782 22.2901 37.7782 20.679 37.7782 18.7099V7.96916C37.7782 6.00003 36.1782 4.38892 34.2227 4.38892ZM34.2227 18.7099H20.0004V11.5494H34.2227V18.7099ZM4.00043 20.5C3.02266 20.5 2.22266 21.3056 2.22266 22.2901V33.0309C2.22266 35 3.82266 36.6111 5.77821 36.6111H20.0004C20.9782 36.6111 21.7782 35.8056 21.7782 34.821C21.7782 33.8364 20.9782 33.0309 20.0004 33.0309H5.77821V22.2901C5.77821 21.3056 4.97821 20.5 4.00043 20.5Z" />
        </g>
    </symbol>
    <symbol id="messages" viewBox="0 0 40 41" fill="none">
        <path d="M23.9511 26.4259V30.3765C23.9511 30.9004 23.7429 31.4028 23.3725 31.7732C23.0021 32.1437 22.4996 32.3518 21.9757 32.3518H8.14858L2.22266 38.2777V18.5246C2.22266 18.0008 2.43077 17.4983 2.80121 17.1279C3.17165 16.7574 3.67408 16.5493 4.19797 16.5493H8.14858M37.7782 24.4506L31.8523 18.5246H18.0251C17.5012 18.5246 16.9988 18.3165 16.6284 17.9461C16.2579 17.5756 16.0498 17.0732 16.0498 16.5493V4.69748C16.0498 4.17359 16.2579 3.67116 16.6284 3.30072C16.9988 2.93028 17.5012 2.72217 18.0251 2.72217H35.8029C36.3268 2.72217 36.8292 2.93028 37.1997 3.30072C37.5701 3.67116 37.7782 4.17359 37.7782 4.69748V24.4506Z"
              stroke="#FFFAFA"
              stroke-width="4"
              stroke-linecap="round"
              stroke-linejoin="round" />
    </symbol>
    <symbol id="wallet" viewBox="0 0 36 36" fill="none">
        <path d="M29.1515 2H4C2.89543 2 2 2.89543 2 4V8M2 8V32C2 33.1046 2.89543 34 4 34H32C33.1046 34 34 33.1046 34 32V10C34 8.89543 33.1046 8 32 8H2Z"
              stroke="white"
              stroke-width="3"
              stroke-linecap="round"
              stroke-linejoin="round" />
    </symbol>
    <symbol id="settings" viewBox="0 0 45 48" fill="none">
        <g stroke="#FFFAFA" stroke-width="3" stroke-linecap="round" stroke-linejoin="round">
            <path d="M22.7965 31.8672C23.7886 31.8672 24.7711 31.6662 25.6877 31.2755C26.6044 30.8849 27.4373 30.3123 28.1388 29.5904C28.8404 28.8686 29.3969 28.0116 29.7766 27.0685C30.1563 26.1253 30.3517 25.1145 30.3517 24.0937C30.3517 23.0728 30.1563 22.062 29.7766 21.1188C29.3969 20.1757 28.8404 19.3187 28.1388 18.5969C27.4373 17.8751 26.6044 17.3025 25.6877 16.9118C24.7711 16.5211 23.7886 16.3201 22.7965 16.3201C20.7927 16.3201 18.871 17.1391 17.4541 18.5969C16.0372 20.0547 15.2412 22.032 15.2412 24.0937C15.2412 26.1553 16.0372 28.1326 17.4541 29.5904C18.871 31.0482 20.7927 31.8672 22.7965 31.8672Z" />
            <path d="M42.6753 31.1509C41.7855 33.7838 40.4115 36.2159 38.6282 38.3144L33.8578 37.2006C32.0486 38.8702 29.8992 40.1019 27.567 40.8055L26.2779 45.6097C25.0695 45.8326 23.8447 45.9478 22.617 45.954C21.0811 45.9558 19.55 45.7775 18.0533 45.4225L16.6856 40.4635C14.6471 39.6904 12.7733 38.5188 11.1674 37.0134L6.45094 38.2613C4.58048 36.0123 3.1765 33.3937 2.3252 30.5662L5.80636 26.587C5.48865 24.552 5.5412 22.474 5.96133 20.4587L2.52733 16.773C3.52557 13.8819 5.10774 11.2412 7.16963 9.02481L12.0433 10.2727C13.3853 9.16556 14.8803 8.27067 16.479 7.61752L17.7681 2.70935C19.3604 2.28508 20.997 2.06237 22.6417 2.04614C23.9556 2.04614 25.2695 2.17093 26.5609 2.41587L27.7984 7.29863C29.6625 7.92024 31.4098 8.86998 32.955 10.1109L37.8556 8.8099C39.8327 10.8601 41.3926 13.2955 42.444 15.9734L39.12 19.6869C39.7504 22.2317 39.8027 24.8916 39.2727 27.4605L42.6753 31.1509Z" />
        </g>
    </symbol>
    <symbol id="qmark" viewBox="0 0 40 40" fill="none">
        <rect x="1.5"
              y="1.5"
              width="37"
              height="37"
              rx="18.5"
              stroke="white"
              stroke-width="3" />
        <path d="M19.9564 10.232C21.8044 10.232 23.2977 10.7547 24.4364 11.8C25.5751 12.8453 26.1444 14.2453 26.1444 16C26.1444 17.96 25.5377 19.416 24.3244 20.368C23.1111 21.3013 21.4684 21.768 19.3964 21.768L19.3124 24.428H17.1004L16.9884 20.004H17.8004C19.6484 20.004 21.0951 19.724 22.1404 19.164C23.1857 18.604 23.7084 17.5493 23.7084 16C23.7084 14.88 23.3724 13.9933 22.7004 13.34C22.0284 12.6867 21.1231 12.36 19.9844 12.36C18.8271 12.36 17.9124 12.6773 17.2404 13.312C16.5871 13.928 16.2604 14.7773 16.2604 15.86H13.8524C13.8524 14.74 14.1044 13.76 14.6084 12.92C15.1124 12.0613 15.8217 11.3987 16.7364 10.932C17.6697 10.4653 18.7431 10.232 19.9564 10.232ZM18.1924 30.168C17.7071 30.168 17.2964 30 16.9604 29.664C16.6244 29.328 16.4564 28.9173 16.4564 28.432C16.4564 27.9467 16.6244 27.536 16.9604 27.2C17.2964 26.864 17.7071 26.696 18.1924 26.696C18.6591 26.696 19.0511 26.864 19.3684 27.2C19.7044 27.536 19.8724 27.9467 19.8724 28.432C19.8724 28.9173 19.7044 29.328 19.3684 29.664C19.0511 30 18.6591 30.168 18.1924 30.168Z" fill="white" />
    </symbol>
    <symbol id="newpost" viewBox="0 0 42 42" fill="none">
        <g stroke="white" stroke-width="3">
            <path d="M21.3647 11.9092V30.091M11.9102 21.3368H30.092" stroke-linecap="round" />
            <path d="M2.49182 6.08177C2.68167 4.18328 4.18328 2.68167 6.08177 2.49182L10.3531 2.06469C17.4334 1.35666 24.5666 1.35666 31.6469 2.06469L35.9182 2.49182C37.8167 2.68167 39.3183 4.18328 39.5082 6.08177V6.08177C40.5003 16.0025 40.5003 25.9975 39.5082 35.9182V35.9182C39.3183 37.8167 37.8167 39.3183 35.9182 39.5082L31.6469 39.9353C24.5666 40.6433 17.4334 40.6433 10.3531 39.9353L6.08177 39.5082C4.18328 39.3183 2.68167 37.8167 2.49182 35.9182V35.9182C1.49975 25.9975 1.49975 16.0025 2.49182 6.08177V6.08177Z" />
        </g>
    </symbol>
    <symbol viewBox="0 0 46 52" fill="none" id="music">
        <g stroke-width="3" stroke-linecap="round" stroke="#77AFFF">
            <path d="M2 12.9998V38.9998" />
            <path d="M30 10.3999L30 43.9999" />
            <path d="M44 20L44 34.4" />
            <path d="M16 2L16 50" />
        </g>
    </symbol>
</svg>