<svg width="45" height="48" viewBox="0 0 45 48" fill="none" xmlns="http://www.w3.org/2000/svg">
<g id="Group">
<path id="Vector" d="M22.7965 31.8672C23.7886 31.8672 24.7711 31.6662 25.6877 31.2755C26.6044 30.8849 27.4373 30.3123 28.1388 29.5904C28.8404 28.8686 29.3969 28.0116 29.7766 27.0685C30.1563 26.1253 30.3517 25.1145 30.3517 24.0937C30.3517 23.0728 30.1563 22.062 29.7766 21.1188C29.3969 20.1757 28.8404 19.3187 28.1388 18.5969C27.4373 17.8751 26.6044 17.3025 25.6877 16.9118C24.7711 16.5211 23.7886 16.3201 22.7965 16.3201C20.7927 16.3201 18.871 17.1391 17.4541 18.5969C16.0372 20.0547 15.2412 22.032 15.2412 24.0937C15.2412 26.1553 16.0372 28.1326 17.4541 29.5904C18.871 31.0482 20.7927 31.8672 22.7965 31.8672Z" stroke="#FFFAFA" stroke-width="3" stroke-linecap="round" stroke-linejoin="round"/>
<path id="Vector_2" d="M42.6753 31.1509C41.7855 33.7838 40.4115 36.2159 38.6282 38.3144L33.8578 37.2006C32.0486 38.8702 29.8992 40.1019 27.567 40.8055L26.2779 45.6097C25.0695 45.8326 23.8447 45.9478 22.617 45.954C21.0811 45.9558 19.55 45.7775 18.0533 45.4225L16.6856 40.4635C14.6471 39.6904 12.7733 38.5188 11.1674 37.0134L6.45094 38.2613C4.58048 36.0123 3.1765 33.3937 2.3252 30.5662L5.80636 26.587C5.48865 24.552 5.5412 22.474 5.96133 20.4587L2.52733 16.773C3.52557 13.8819 5.10774 11.2412 7.16963 9.02481L12.0433 10.2727C13.3853 9.16556 14.8803 8.27067 16.479 7.61752L17.7681 2.70935C19.3604 2.28508 20.997 2.06237 22.6417 2.04614C23.9556 2.04614 25.2695 2.17093 26.5609 2.41587L27.7984 7.29863C29.6625 7.92024 31.4098 8.86998 32.955 10.1109L37.8556 8.8099C39.8327 10.8601 41.3926 13.2955 42.444 15.9734L39.12 19.6869C39.7504 22.2317 39.8027 24.8916 39.2727 27.4605L42.6753 31.1509Z" stroke="#FFFAFA" stroke-width="3" stroke-linecap="round" stroke-linejoin="round"/>
</g>
</svg>
