<svg width="39" height="41" viewBox="0 0 39 41" fill="none" xmlns="http://www.w3.org/2000/svg">
<path d="M25.8758 36.2895C25.8758 38.5092 24.1418 40.3277 21.9423 40.4885L21.625 40.5H17.3743C15.1334 40.5 13.2975 38.7824 13.1352 36.6037L13.1236 36.2895H25.8758ZM19.5001 0.5C27.5456 0.5 34.0995 6.82587 34.3691 14.7302L34.3777 15.2368V23.1608L38.2501 30.8328C38.9904 32.2993 38.0004 34.0123 36.4032 34.1721L36.1592 34.1842H2.84093C1.18573 34.1842 0.0816237 32.5411 0.651641 31.0544L0.74984 30.8328L4.6224 23.1608V15.2368C4.6224 7.09792 11.2833 0.5 19.5001 0.5Z" fill="#252525"/>
</svg>
