<svg width="66" height="56" viewBox="0 0 66 56" fill="none" xmlns="http://www.w3.org/2000/svg">
<path d="M3.83398 21.6839C3.83398 15.4561 8.88265 10.4074 15.1105 10.4074H19.3804C21.7061 10.4074 23.7686 8.91345 24.4937 6.7037V6.7037C25.2188 4.49396 27.2813 3 29.607 3H36.3943C38.72 3 40.7825 4.49396 41.5076 6.7037V6.7037C42.2327 8.91345 44.2952 10.4074 46.6209 10.4074H50.8908C57.1187 10.4074 62.1673 15.4561 62.1673 21.6839V38C62.1673 46.2843 55.4516 53 47.1673 53H18.834C10.5497 53 3.83398 46.2843 3.83398 38V21.6839Z" stroke="white" stroke-width="6"/>
<rect x="23.2773" y="20.6471" width="19.4444" height="20.5882" rx="9.72222" stroke="white" stroke-width="6"/>
</svg>
