<svg width="56" height="56" viewBox="0 0 56 56" fill="none" xmlns="http://www.w3.org/2000/svg"><path id="Vector" d="M28 0C30.6648 0 32.8276 2.16276 32.8276 4.82759V23.1724H51.1724C52.4528 23.1724 53.6807 23.681 54.586 24.5864C55.4914 25.4917 56 26.7196 56 28C56 29.2804 55.4914 30.5083 54.586 31.4136C53.6807 32.319 52.4528 32.8276 51.1724 32.8276H32.8276V51.1724C32.8276 52.4528 32.319 53.6807 31.4136 54.586C30.5083 55.4914 29.2804 56 28 56C26.7196 56 25.4917 55.4914 24.5864 54.586C23.681 53.6807 23.1724 52.4528 23.1724 51.1724V32.8276H4.82759C3.54723 32.8276 2.31932 32.319 1.41397 31.4136C0.508619 30.5083 0 29.2804 0 28C0 26.7196 0.508619 25.4917 1.41397 24.5864C2.31932 23.681 3.54723 23.1724 4.82759 23.1724H23.1724V4.82759C23.1724 2.16276 25.3352 0 28 0Z" fill="#FFFAFA"/></svg>