<svg width="40" height="41" viewBox="0 0 40 41" fill="none" xmlns="http://www.w3.org/2000/svg">
<g id="ic:round-people">
<path id="Vector" d="M26.2903 19.1241C28.9007 19.1241 30.9921 17.017 30.9921 14.4067C30.9921 11.7963 28.9007 9.68921 26.2903 9.68921C23.68 9.68921 21.5729 11.7963 21.5729 14.4067C21.5729 17.017 23.68 19.1241 26.2903 19.1241ZM13.7105 19.1241C16.3208 19.1241 18.4122 17.017 18.4122 14.4067C18.4122 11.7963 16.3208 9.68921 13.7105 9.68921C11.1002 9.68921 8.99305 11.7963 8.99305 14.4067C8.99305 17.017 11.1002 19.1241 13.7105 19.1241ZM13.7105 22.2691C10.0466 22.2691 2.70312 24.1089 2.70312 27.7727V30.1315C2.70312 30.9963 3.41074 31.704 4.27561 31.704H23.1454C24.0103 31.704 24.7179 30.9963 24.7179 30.1315V27.7727C24.7179 24.1089 17.3744 22.2691 13.7105 22.2691ZM26.2903 22.2691C25.8343 22.2691 25.3154 22.3005 24.765 22.3477C24.7965 22.3634 24.8122 22.3949 24.8279 22.4106C26.6206 23.7157 27.8628 25.4612 27.8628 27.7727V30.1315C27.8628 30.6818 27.7528 31.2165 27.5798 31.704H35.7252C36.5901 31.704 37.2977 30.9963 37.2977 30.1315V27.7727C37.2977 24.1089 29.9542 22.2691 26.2903 22.2691Z" fill="#FFFAFA"/>
</g>
</svg>
