<svg width="144" height="131" viewBox="0 0 144 131" fill="none" xmlns="http://www.w3.org/2000/svg">
<g filter="url(#filter0_di_12503_130819)">
<ellipse cx="44.3754" cy="38.3504" rx="44.3754" ry="38.3504" transform="matrix(-0.946745 -0.321985 -0.296418 0.955058 143.32 52.2461)" fill="url(#paint0_radial_12503_130819)"/>
<path d="M100.716 39.8681C78.29 32.2412 55.6941 42.0192 49.8215 60.9406C43.9491 79.862 56.7401 101.675 79.1658 109.302C101.591 116.929 124.186 107.15 130.059 88.2292C135.932 69.3079 123.141 47.4952 100.716 39.8681Z" stroke="#FFB441" stroke-width="4"/>
</g>
<path d="M81.2528 70.0958L78.3789 64.8398L87.5355 59.8331L100.73 83.9641L94.8462 87.1815L84.5254 68.3064L81.2528 70.0958Z" fill="#FFDE69"/>
<g style="mix-blend-mode:overlay" opacity="0.7" filter="url(#filter1_f_12503_130819)">
<ellipse cx="75.7888" cy="80.8847" rx="44.4722" ry="25.9421" transform="rotate(-23.0058 75.7888 80.8847)" fill="url(#paint1_radial_12503_130819)"/>
</g>
<g filter="url(#filter2_di_12503_130819)">
<ellipse cx="44.3754" cy="38.3504" rx="44.3754" ry="38.3504" transform="matrix(-0.946745 -0.321985 -0.296418 0.955058 107.441 29.0742)" fill="url(#paint2_radial_12503_130819)"/>
<path d="M64.8368 16.6962C42.4111 9.06932 19.8151 18.8473 13.9426 37.7687C8.07015 56.6901 20.8612 78.5032 43.2869 86.1301C65.7124 93.7568 88.3075 83.9785 94.1801 65.0573C100.053 46.136 87.2623 24.3233 64.8368 16.6962Z" stroke="#FFB441" stroke-width="4"/>
</g>
<path d="M44.3231 45.9708L41.4492 40.7148L50.6058 35.7081L63.8005 59.8391L57.9165 63.0565L47.5957 44.1814L44.3231 45.9708Z" fill="#FFDE69"/>
<defs>
<filter id="filter0_di_12503_130819" x="44.4062" y="35.2578" width="89.0664" height="83.6523" filterUnits="userSpaceOnUse" color-interpolation-filters="sRGB">
<feFlood flood-opacity="0" result="BackgroundImageFix"/>
<feColorMatrix in="SourceAlpha" type="matrix" values="0 0 0 0 0 0 0 0 0 0 0 0 0 0 0 0 0 0 127 0" result="hardAlpha"/>
<feOffset dx="-2" dy="5"/>
<feComposite in2="hardAlpha" operator="out"/>
<feColorMatrix type="matrix" values="0 0 0 0 0.816857 0 0 0 0 0.476559 0 0 0 0 0.0647987 0 0 0 1 0"/>
<feBlend mode="normal" in2="BackgroundImageFix" result="effect1_dropShadow_12503_130819"/>
<feBlend mode="normal" in="SourceGraphic" in2="effect1_dropShadow_12503_130819" result="shape"/>
<feColorMatrix in="SourceAlpha" type="matrix" values="0 0 0 0 0 0 0 0 0 0 0 0 0 0 0 0 0 0 127 0" result="hardAlpha"/>
<feOffset/>
<feGaussianBlur stdDeviation="6.2"/>
<feComposite in2="hardAlpha" operator="arithmetic" k2="-1" k3="1"/>
<feColorMatrix type="matrix" values="0 0 0 0 0 0 0 0 0 0 0 0 0 0 0 0 0 0 0.25 0"/>
<feBlend mode="normal" in2="shape" result="effect2_innerShadow_12503_130819"/>
</filter>
<filter id="filter1_f_12503_130819" x="13.6055" y="31.3477" width="124.363" height="99.0742" filterUnits="userSpaceOnUse" color-interpolation-filters="sRGB">
<feFlood flood-opacity="0" result="BackgroundImageFix"/>
<feBlend mode="normal" in="SourceGraphic" in2="BackgroundImageFix" result="shape"/>
<feGaussianBlur stdDeviation="10" result="effect1_foregroundBlur_12503_130819"/>
</filter>
<filter id="filter2_di_12503_130819" x="8.52734" y="12.0859" width="89.0664" height="83.6523" filterUnits="userSpaceOnUse" color-interpolation-filters="sRGB">
<feFlood flood-opacity="0" result="BackgroundImageFix"/>
<feColorMatrix in="SourceAlpha" type="matrix" values="0 0 0 0 0 0 0 0 0 0 0 0 0 0 0 0 0 0 127 0" result="hardAlpha"/>
<feOffset dx="-2" dy="5"/>
<feComposite in2="hardAlpha" operator="out"/>
<feColorMatrix type="matrix" values="0 0 0 0 0.816857 0 0 0 0 0.476559 0 0 0 0 0.0647987 0 0 0 1 0"/>
<feBlend mode="normal" in2="BackgroundImageFix" result="effect1_dropShadow_12503_130819"/>
<feBlend mode="normal" in="SourceGraphic" in2="effect1_dropShadow_12503_130819" result="shape"/>
<feColorMatrix in="SourceAlpha" type="matrix" values="0 0 0 0 0 0 0 0 0 0 0 0 0 0 0 0 0 0 127 0" result="hardAlpha"/>
<feOffset/>
<feGaussianBlur stdDeviation="6.2"/>
<feComposite in2="hardAlpha" operator="arithmetic" k2="-1" k3="1"/>
<feColorMatrix type="matrix" values="0 0 0 0 0 0 0 0 0 0 0 0 0 0 0 0 0 0 0.25 0"/>
<feBlend mode="normal" in2="shape" result="effect2_innerShadow_12503_130819"/>
</filter>
<radialGradient id="paint0_radial_12503_130819" cx="0" cy="0" r="1" gradientTransform="matrix(5.32041 59.3355 -68.637 6.95999 39.055 17.3653)" gradientUnits="userSpaceOnUse">
<stop stop-color="#FCBB32"/>
<stop offset="1" stop-color="#FB9315"/>
</radialGradient>
<radialGradient id="paint1_radial_12503_130819" cx="0" cy="0" r="1" gradientUnits="userSpaceOnUse" gradientTransform="translate(75.7888 80.8847) rotate(90) scale(25.9421 44.4722)">
<stop stop-color="#5B3708"/>
<stop offset="1" stop-color="#252525" stop-opacity="0"/>
</radialGradient>
<radialGradient id="paint2_radial_12503_130819" cx="0" cy="0" r="1" gradientTransform="matrix(5.32041 59.3355 -68.637 6.95999 39.055 17.3653)" gradientUnits="userSpaceOnUse">
<stop stop-color="#FCBB32"/>
<stop offset="1" stop-color="#FB9315"/>
</radialGradient>
</defs>
</svg>
