<svg width="40" height="41" viewBox="0 0 40 41" fill="none" xmlns="http://www.w3.org/2000/svg">
<g id="Icon">
<path id="Vector" d="M23.9511 26.4259V30.3765C23.9511 30.9004 23.7429 31.4028 23.3725 31.7732C23.0021 32.1437 22.4996 32.3518 21.9757 32.3518H8.14858L2.22266 38.2777V18.5246C2.22266 18.0008 2.43077 17.4983 2.80121 17.1279C3.17165 16.7574 3.67408 16.5493 4.19797 16.5493H8.14858M37.7782 24.4506L31.8523 18.5246H18.0251C17.5012 18.5246 16.9988 18.3165 16.6284 17.9461C16.2579 17.5756 16.0498 17.0732 16.0498 16.5493V4.69748C16.0498 4.17359 16.2579 3.67116 16.6284 3.30072C16.9988 2.93028 17.5012 2.72217 18.0251 2.72217H35.8029C36.3268 2.72217 36.8292 2.93028 37.1997 3.30072C37.5701 3.67116 37.7782 4.17359 37.7782 4.69748V24.4506Z" stroke="#FFFAFA" stroke-width="4" stroke-linecap="round" stroke-linejoin="round"/>
</g>
</svg>
