<svg width="143" height="130" viewBox="0 0 143 130" fill="none" xmlns="http://www.w3.org/2000/svg">
<g filter="url(#filter0_d_12212_114808)">
<ellipse cx="71.3047" cy="64.6135" rx="57.7634" ry="45.5517" transform="rotate(-23.0891 71.3047 64.6135)" fill="url(#paint0_radial_12212_114808)"/>
</g>
<path d="M97.6948 68.1288C97.3344 68.9739 96.0644 69.5104 94.8552 69.3258C93.646 69.1411 92.9611 68.3059 93.3215 67.4608C96.9218 59.0191 90.0417 50.6531 77.9845 48.8116C71.0879 47.7583 63.6273 49.0812 57.8994 52.2668L64.4396 53.2657C65.6488 53.4504 66.3337 54.2855 65.9733 55.1306C65.6129 55.9757 64.3429 56.5123 63.1337 56.3276L54.3872 54.9918C51.9753 54.6234 50.5996 52.9506 51.3198 51.2619L53.9315 45.1381C54.292 44.293 55.5619 43.7564 56.7711 43.9411C57.9803 44.1257 58.6652 44.9609 58.3048 45.806L56.931 49.0271C63.5369 45.8582 71.6897 44.5888 79.2904 45.7497C93.7594 47.9595 102.015 57.9984 97.6948 68.1288ZM88.5231 73.2507L79.7766 71.9149C78.5674 71.7302 77.2974 72.2668 76.937 73.1119C76.5766 73.957 77.2615 74.7922 78.4707 74.9768L85.0109 75.9757C79.2808 79.161 71.8224 80.4842 64.9258 79.4309C52.8687 77.5895 45.9885 69.2234 49.5888 60.7817C49.9492 59.9366 49.2643 59.1014 48.0551 58.9168C46.8459 58.7321 45.5759 59.2687 45.2155 60.1138C40.895 70.2441 49.1509 80.283 63.6199 82.4928C71.2206 83.6537 79.3734 82.3843 85.9793 79.2154L84.6055 82.4365C84.2451 83.2816 84.93 84.1168 86.1392 84.3014C87.3484 84.4861 88.6184 83.9495 88.9788 83.1044L91.5905 76.9806C92.3107 75.2919 90.935 73.6191 88.5231 73.2507Z" fill="white"/>
<defs>
<filter id="filter0_d_12212_114808" x="15.2305" y="16.9688" width="113.001" height="99.6721" filterUnits="userSpaceOnUse" color-interpolation-filters="sRGB">
<feFlood flood-opacity="0" result="BackgroundImageFix"/>
<feColorMatrix in="SourceAlpha" type="matrix" values="0 0 0 0 0 0 0 0 0 0 0 0 0 0 0 0 0 0 127 0" result="hardAlpha"/>
<feOffset dx="0.852262" dy="4.38306"/>
<feComposite in2="hardAlpha" operator="out"/>
<feColorMatrix type="matrix" values="0 0 0 0 0 0 0 0 0 0.279999 0 0 0 0 0.679997 0 0 0 1 0"/>
<feBlend mode="normal" in2="BackgroundImageFix" result="effect1_dropShadow_12212_114808"/>
<feBlend mode="normal" in="SourceGraphic" in2="effect1_dropShadow_12212_114808" result="shape"/>
</filter>
<radialGradient id="paint0_radial_12212_114808" cx="0" cy="0" r="1" gradientUnits="userSpaceOnUse" gradientTransform="translate(68.1913 49.5848) rotate(87.058) scale(60.6604 76.9225)">
<stop stop-color="#8B78FF"/>
<stop offset="1" stop-color="#0069FF"/>
</radialGradient>
</defs>
</svg>
