<svg width="32" height="32" viewBox="0 0 32 32" fill="none" xmlns="http://www.w3.org/2000/svg">
<path d="M6.66667 13.3333C4.46133 13.3333 2.66667 15.128 2.66667 17.3333C2.66667 18.0707 2.06933 18.6667 1.33333 18.6667C0.597333 18.6667 0 18.0707 0 17.3333C0 13.6573 2.99067 10.6667 6.66667 10.6667C10.3427 10.6667 13.3333 13.6573 13.3333 17.3333C13.3333 18.0707 12.736 18.6667 12 18.6667C11.264 18.6667 10.6667 18.0707 10.6667 17.3333C10.6667 15.128 8.872 13.3333 6.66667 13.3333ZM2 4.66667C2 2.09333 4.09333 0 6.66667 0C9.24 0 11.3333 2.09333 11.3333 4.66667C11.3333 7.24 9.24 9.33333 6.66667 9.33333C4.09333 9.33333 2 7.24 2 4.66667ZM4.66667 4.66667C4.66667 5.76933 5.564 6.66667 6.66667 6.66667C7.76933 6.66667 8.66667 5.76933 8.66667 4.66667C8.66667 3.564 7.76933 2.66667 6.66667 2.66667C5.564 2.66667 4.66667 3.564 4.66667 4.66667ZM25.3333 10.6667C21.6573 10.6667 18.6667 13.6573 18.6667 17.3333C18.6667 18.0707 19.264 18.6667 20 18.6667C20.736 18.6667 21.3333 18.0707 21.3333 17.3333C21.3333 15.128 23.128 13.3333 25.3333 13.3333C27.5387 13.3333 29.3333 15.128 29.3333 17.3333C29.3333 18.0707 29.9307 18.6667 30.6667 18.6667C31.4027 18.6667 32 18.0707 32 17.3333C32 13.6573 29.0093 10.6667 25.3333 10.6667ZM20.6667 4.66667C20.6667 2.09333 22.76 0 25.3333 0C27.9067 0 30 2.09333 30 4.66667C30 7.24 27.9067 9.33333 25.3333 9.33333C22.76 9.33333 20.6667 7.24 20.6667 4.66667ZM23.3333 4.66667C23.3333 5.76933 24.2307 6.66667 25.3333 6.66667C26.436 6.66667 27.3333 5.76933 27.3333 4.66667C27.3333 3.564 26.436 2.66667 25.3333 2.66667C24.2307 2.66667 23.3333 3.564 23.3333 4.66667ZM27.1347 20.7307C26.1613 19.76 24.576 19.7587 23.6347 20.7L20.4253 23.692C19.8867 24.1947 19.8573 25.0387 20.36 25.576C20.6227 25.8587 20.9787 26 21.3347 26C21.6613 26 21.9867 25.8813 22.244 25.6413L24.0013 24.0027V26.6667C24.0013 28.1373 22.8053 29.3333 21.3347 29.3333H10.668C9.19733 29.3333 8.00133 28.1373 8.00133 26.6667V21.3333C8.00133 20.596 7.404 20 6.668 20C5.932 20 5.33467 20.596 5.33467 21.3333V26.6667C5.33467 29.608 7.72667 32 10.668 32H21.3347C24.276 32 26.668 29.608 26.668 26.6667V23.968L28.4147 25.632C28.9493 26.14 29.792 26.1227 30.3 25.5867C30.808 25.0547 30.788 24.2107 30.2547 23.7027L27.1347 20.7307Z" fill="white"/>
</svg>
