<svg width="49" height="48" viewBox="0 0 49 48" fill="none" xmlns="http://www.w3.org/2000/svg">
<g clip-path="url(#clip0_8636_58930)">
<path d="M38.3437 16.9421V14.1316C38.3436 10.4674 36.8881 6.95331 34.2971 4.36235C31.7061 1.77138 28.192 0.315796 24.5279 0.315796C20.8637 0.315796 17.3496 1.77138 14.7586 4.36235C12.1677 6.95331 10.7121 10.4674 10.7121 14.1316V16.9421C8.95423 17.7093 7.45804 18.9721 6.40647 20.5761C5.35491 22.1801 4.79354 24.0557 4.79102 25.9737V37.8158C4.79415 40.4321 5.83486 42.9404 7.68487 44.7904C9.53488 46.6404 12.0431 47.6811 14.6594 47.6842H34.3963C37.0126 47.6811 39.5208 46.6404 41.3708 44.7904C43.2209 42.9404 44.2616 40.4321 44.2647 37.8158V25.9737C44.2622 24.0557 43.7008 22.1801 42.6492 20.5761C41.5977 18.9721 40.1015 17.7093 38.3437 16.9421ZM14.6594 14.1316C14.6594 11.5143 15.6991 9.00425 17.5498 7.15356C19.4005 5.30287 21.9106 4.26316 24.5279 4.26316C27.1451 4.26316 29.6552 5.30287 31.5059 7.15356C33.3566 9.00425 34.3963 11.5143 34.3963 14.1316V16.1053H14.6594V14.1316ZM40.3173 37.8158C40.3173 39.3862 39.6935 40.8922 38.5831 42.0026C37.4727 43.113 35.9666 43.7368 34.3963 43.7368H14.6594C13.0891 43.7368 11.583 43.113 10.4726 42.0026C9.36221 40.8922 8.73838 39.3862 8.73838 37.8158V25.9737C8.73838 24.4033 9.36221 22.8973 10.4726 21.7869C11.583 20.6765 13.0891 20.0526 14.6594 20.0526H34.3963C35.9666 20.0526 37.4727 20.6765 38.5831 21.7869C39.6935 22.8973 40.3173 24.4033 40.3173 25.9737V37.8158Z" fill="#0069FF"/>
<path d="M24.5284 27.9473C24.0049 27.9473 23.5029 28.1552 23.1328 28.5253C22.7626 28.8955 22.5547 29.3975 22.5547 29.9209V33.8683C22.5547 34.3918 22.7626 34.8938 23.1328 35.2639C23.5029 35.6341 24.0049 35.842 24.5284 35.842C25.0518 35.842 25.5538 35.6341 25.924 35.2639C26.2941 34.8938 26.5021 34.3918 26.5021 33.8683V29.9209C26.5021 29.3975 26.2941 28.8955 25.924 28.5253C25.5538 28.1552 25.0518 27.9473 24.5284 27.9473Z" fill="#0069FF"/>
</g>
<defs>
<clipPath id="clip0_8636_58930">
<rect width="47.3684" height="47.3684" fill="white" transform="translate(0.841797 0.315796)"/>
</clipPath>
</defs>
</svg>
