<svg width="42" height="40" viewBox="0 0 42 40" fill="none" xmlns="http://www.w3.org/2000/svg">
<path id="Vector" d="M30.7973 25.7963H28.8511L28.1613 25.1632C29.7009 23.4608 30.8261 21.4555 31.4564 19.2909C32.0867 17.1263 32.2065 14.8558 31.8073 12.6419C30.6494 6.12333 24.9341 0.917852 18.0363 0.120616C15.6113 -0.171393 13.1482 0.068495 10.8356 0.821924C8.52296 1.57535 6.42205 2.82235 4.69363 4.4675C2.96521 6.11265 1.65509 8.11235 0.863526 10.3136C0.0719619 12.5148 -0.180068 14.8592 0.126721 17.1674C0.96431 23.7329 6.43327 29.1728 13.2818 30.2749C15.6077 30.6549 17.9931 30.5408 20.2673 29.9409C22.5415 29.3409 24.6483 28.27 26.4369 26.8046L27.102 27.4611V29.3135L37.5719 39.279C38.5819 40.2403 40.2324 40.2403 41.2425 39.279C42.2525 38.3176 42.2525 36.7466 41.2425 35.7852L30.7973 25.7963ZM16.0163 25.7963C9.88217 25.7963 4.93054 21.0832 4.93054 15.2447C4.93054 9.40607 9.88217 4.693 16.0163 4.693C22.1504 4.693 27.102 9.40607 27.102 15.2447C27.102 21.0832 22.1504 25.7963 16.0163 25.7963Z" fill="#fff"/>
</svg>
