<svg width="38" height="38" viewBox="0 0 38 38" fill="none" xmlns="http://www.w3.org/2000/svg">
<path d="M19 38C16.3717 38 13.9017 37.5012 11.59 36.5037C9.27833 35.5062 7.2675 34.1525 5.5575 32.4425C3.8475 30.7325 2.49375 28.7217 1.49625 26.41C0.49875 24.0983 0 21.6283 0 19C0 16.3717 0.49875 13.9017 1.49625 11.59C2.49375 9.27833 3.8475 7.2675 5.5575 5.5575C7.2675 3.8475 9.27833 2.49375 11.59 1.49625C13.9017 0.49875 16.3717 0 19 0C20.52 0 22.0004 0.174167 23.4412 0.5225C24.8821 0.870833 26.2675 1.3775 27.5975 2.0425C28.0725 2.29583 28.3812 2.67583 28.5237 3.1825C28.6662 3.68917 28.5792 4.16417 28.2625 4.6075C27.9458 5.05083 27.5262 5.33583 27.0037 5.4625C26.4812 5.58917 25.9667 5.52583 25.46 5.2725C24.4467 4.7975 23.3937 4.43333 22.3012 4.18C21.2087 3.92667 20.1083 3.8 19 3.8C14.7883 3.8 11.2021 5.28042 8.24125 8.24125C5.28042 11.2021 3.8 14.7883 3.8 19C3.8 23.2117 5.28042 26.7979 8.24125 29.7587C11.2021 32.7196 14.7883 34.2 19 34.2C23.2117 34.2 26.7979 32.7196 29.7587 29.7587C32.7196 26.7979 34.2 23.2117 34.2 19C34.2 18.7467 34.1921 18.5012 34.1762 18.2637C34.1604 18.0262 34.1367 17.7808 34.105 17.5275C34.0417 16.9892 34.1446 16.4746 34.4137 15.9837C34.6829 15.4929 35.0867 15.1683 35.625 15.01C36.1317 14.8517 36.6067 14.8992 37.05 15.1525C37.4933 15.4058 37.7467 15.7858 37.81 16.2925C37.8733 16.7358 37.9208 17.1792 37.9525 17.6225C37.9842 18.0658 38 18.525 38 19C38 21.6283 37.5012 24.0983 36.5037 26.41C35.5062 28.7217 34.1525 30.7325 32.4425 32.4425C30.7325 34.1525 28.7217 35.5062 26.41 36.5037C24.0983 37.5012 21.6283 38 19 38ZM16.34 22.42L34.01 4.7025C34.3583 4.35417 34.7937 4.17208 35.3162 4.15625C35.8387 4.14042 36.29 4.3225 36.67 4.7025C37.0183 5.05083 37.1925 5.49417 37.1925 6.0325C37.1925 6.57083 37.0183 7.01417 36.67 7.3625L17.67 26.41C17.29 26.79 16.8467 26.98 16.34 26.98C15.8333 26.98 15.39 26.79 15.01 26.41L9.595 20.995C9.24667 20.6467 9.0725 20.2033 9.0725 19.665C9.0725 19.1267 9.24667 18.6833 9.595 18.335C9.94333 17.9867 10.3867 17.8125 10.925 17.8125C11.4633 17.8125 11.9067 17.9867 12.255 18.335L16.34 22.42Z" fill="#AAFF67"/>
</svg>
