<svg width="45" height="30" viewBox="0 0 45 30" fill="none" xmlns="http://www.w3.org/2000/svg">
<path d="M0 27.5C0 28.8807 1.11929 30 2.5 30H12.5C13.8807 30 15 28.8807 15 27.5C15 26.1193 13.8807 25 12.5 25H2.5C1.11929 25 0 26.1193 0 27.5ZM2.5 0C1.11929 0 0 1.11929 0 2.5C0 3.88071 1.11929 5 2.5 5H42.5C43.8807 5 45 3.88071 45 2.5C45 1.11929 43.8807 0 42.5 0H2.5ZM0 15C0 16.3807 1.11929 17.5 2.5 17.5H27.5C28.8807 17.5 30 16.3807 30 15C30 13.6193 28.8807 12.5 27.5 12.5H2.5C1.11929 12.5 0 13.6193 0 15Z" fill="white"/>
</svg>
