<svg width="43" height="35" viewBox="0 0 43 35" fill="none" xmlns="http://www.w3.org/2000/svg">
<path d="M21.5 32L20.7852 33.3193C21.234 33.5625 21.7764 33.5607 22.2236 33.3145L21.5 32ZM21.5 32C22.1779 33.2313 22.2208 33.3087 22.2236 33.3135L22.2295 33.3105C22.2329 33.3086 22.2379 33.3062 22.2441 33.3027C22.2572 33.2955 22.2763 33.2842 22.3008 33.2705C22.3498 33.2432 22.4215 33.2033 22.5137 33.1514C22.698 33.0475 22.9651 32.8956 23.2988 32.7021C23.9659 32.3155 24.9022 31.7619 25.9824 31.0898C28.1345 29.7509 30.8959 27.9209 33.2451 25.998L33.2441 25.9971C38.2407 21.9093 41.5 17.3795 41.5 11.8301C41.4998 5.96963 36.2826 1.5 30.1875 1.5C27.8172 1.50002 25.6093 2.16753 23.7832 3.31836C23.1864 3.6946 22.9331 4.43642 23.1738 5.09961L24.9707 10.0518L21.2764 15.6367C21.1804 15.7818 21.1111 15.9422 21.0703 16.1104L21.0391 16.2812L20.6787 19.2119L19.124 15.6543L22.6748 11.1826C22.9891 10.7867 23.0825 10.2592 22.9238 9.7793L21.8965 6.67188C21.8637 6.57275 21.8202 6.47691 21.7676 6.38672C20.846 4.80697 19.6988 3.549 18.1709 2.7041C16.6508 1.86354 14.8771 1.50001 12.8125 1.5C6.71569 1.5 1.50025 5.98564 1.5 11.8301C1.5 17.3894 5.30474 22.2399 9.7373 25.9834C11.9931 27.8885 14.7653 29.7243 16.9434 31.0703C18.0379 31.7467 18.9946 32.3067 19.6787 32.6982C20.0209 32.8941 20.2955 33.0488 20.4854 33.1543C20.5803 33.207 20.6544 33.2476 20.7051 33.2754C20.7304 33.2892 20.7502 33.2993 20.7637 33.3066C20.7704 33.3103 20.7756 33.3134 20.7793 33.3154L20.7852 33.3184L21.5 32Z" stroke="white" stroke-width="3" stroke-linecap="round" stroke-linejoin="round"/>
</svg>
