<svg width="41" height="30" viewBox="0 0 41 30" fill="none" xmlns="http://www.w3.org/2000/svg">
<path d="M26.5522 15.0008C26.5522 16.7058 25.9066 18.3409 24.7574 19.5465C23.6083 20.7521 22.0497 21.4294 20.4245 21.4294C18.7994 21.4294 17.2408 20.7521 16.0916 19.5465C14.9425 18.3409 14.2969 16.7058 14.2969 15.0008C14.2969 13.2959 14.9425 11.6607 16.0916 10.4551C17.2408 9.24956 18.7994 8.57227 20.4245 8.57227C22.0497 8.57227 23.6083 9.24956 24.7574 10.4551C25.9066 11.6607 26.5522 13.2959 26.5522 15.0008Z" stroke="white" stroke-width="4" stroke-linecap="round" stroke-linejoin="round"/>
<path d="M20.4258 2C28.7419 2.00011 35.5476 7.25795 38.7031 15C35.5476 22.742 28.7419 27.9999 20.4258 28C12.1094 28 5.30199 22.7424 2.14648 15C5.30199 7.2576 12.1094 2 20.4258 2Z" stroke="white" stroke-width="4" stroke-linecap="round" stroke-linejoin="round"/>
</svg>
