<svg width="40" height="34" viewBox="0 0 40 34" fill="none" xmlns="http://www.w3.org/2000/svg">
<path d="M32.5 2.84124e-06L7.5 6.55671e-07C3.365 2.94178e-07 -3.00061e-07 3.4323 -6.68784e-07 7.65L-2.30359e-06 26.35C-2.67231e-06 30.5677 3.365 34 7.5 34L32.5 34C36.635 34 40 30.5677 40 26.35L40 7.65C40 3.4323 36.635 3.20273e-06 32.5 2.84124e-06ZM38.3333 26.35C38.3333 29.631 35.7167 32.3 32.5 32.3L7.5 32.3C4.28333 32.3 1.66666 29.631 1.66666 26.35L1.66667 7.65C1.66667 4.369 4.28333 1.7 7.5 1.7L32.5 1.7C35.7167 1.7 38.3333 4.369 38.3333 7.65L38.3333 26.35ZM32.5 6.8C32.04 6.8 31.6667 7.1808 31.6667 7.65L31.6667 17.0901C30.6067 15.9851 29.13 15.3 27.5 15.3C24.2833 15.3 21.6667 17.969 21.6667 21.25C21.6667 24.531 24.2833 27.2 27.5 27.2C29.13 27.2 30.6067 26.5132 31.6667 25.4099L31.6667 26.35C31.6667 26.8192 32.04 27.2 32.5 27.2C32.96 27.2 33.3333 26.8192 33.3333 26.35L33.3333 7.65C33.3333 7.1808 32.96 6.8 32.5 6.8ZM27.5 25.5C25.2033 25.5 23.3333 23.5926 23.3333 21.25C23.3333 18.9074 25.2033 17 27.5 17C29.7967 17 31.6667 18.9074 31.6667 21.25C31.6667 23.5926 29.7967 25.5 27.5 25.5ZM14.1283 7.3933C13.9083 6.6878 12.76 6.6878 12.54 7.3933L6.70666 26.0933C6.56833 26.5404 6.81 27.0181 7.24833 27.1609C7.68666 27.3054 8.15333 27.0555 8.295 26.6084L9.17 23.8017L17.4967 23.8017L18.3717 26.6084C18.485 26.9705 18.8133 27.2017 19.1667 27.2017C19.25 27.2017 19.335 27.1898 19.4183 27.1626C19.8567 27.0198 20.1 26.5421 19.96 26.095L14.1267 7.395L14.1283 7.3933ZM9.70166 22.1L13.335 10.4533L16.9683 22.1L9.70166 22.1Z" fill="#252525"/>
</svg>
