<svg width="42" height="42" viewBox="0 0 42 42" fill="none" xmlns="http://www.w3.org/2000/svg">
<path d="M21.3647 11.9092V30.091M11.9102 21.3368H30.092" stroke="white" stroke-width="3" stroke-linecap="round"/>
<path d="M2.49182 6.08177C2.68167 4.18328 4.18328 2.68167 6.08177 2.49182L10.3531 2.06469C17.4334 1.35666 24.5666 1.35666 31.6469 2.06469L35.9182 2.49182C37.8167 2.68167 39.3183 4.18328 39.5082 6.08177V6.08177C40.5003 16.0025 40.5003 25.9975 39.5082 35.9182V35.9182C39.3183 37.8167 37.8167 39.3183 35.9182 39.5082L31.6469 39.9353C24.5666 40.6433 17.4334 40.6433 10.3531 39.9353L6.08177 39.5082C4.18328 39.3183 2.68167 37.8167 2.49182 35.9182V35.9182C1.49975 25.9975 1.49975 16.0025 2.49182 6.08177V6.08177Z" stroke="white" stroke-width="3"/>
</svg>
