<svg width="52" height="52" viewBox="0 0 52 52" fill="none" xmlns="http://www.w3.org/2000/svg">
<path d="M2.86478 7.35221C3.10157 4.98427 4.97539 3.10246 7.34333 2.86567L15.3531 2.06469C22.4334 1.35666 29.5666 1.35666 36.6469 2.06469L44.6567 2.86567C47.0246 3.10246 48.8984 4.98427 49.1352 7.35221C50.3726 19.7262 50.3726 32.2738 49.1352 44.6478C48.8984 47.0157 47.0246 48.8975 44.6567 49.1343L36.6469 49.9353C29.5666 50.6433 22.4334 50.6433 15.3531 49.9353L7.34333 49.1343C4.97539 48.8975 3.10157 47.0157 2.86478 44.6478C1.62738 32.2738 1.62738 19.7262 2.86478 7.35221Z" fill="white" stroke="white" stroke-width="3"/>
<path d="M26.4549 14.6365V37.3637M14.6367 26.421H37.364" stroke="#252525" stroke-width="3" stroke-linecap="round"/>
</svg>
