<svg width="441" height="97" viewBox="0 0 441 97" fill="none" xmlns="http://www.w3.org/2000/svg">
<g filter="url(#filter0_d_2743_18637)">
<rect x="90.5" y="0.5" width="350" height="96" rx="48" fill="url(#paint0_linear_2743_18637)"/>
<path d="M152.58 59.5H147.108L137.956 45.644V59.5H132.484V37.036H137.956L147.108 50.956V37.036H152.58V59.5ZM174.018 50.284C174.018 50.796 173.986 51.3293 173.923 51.884H161.538C161.624 52.9933 161.976 53.8467 162.594 54.444C163.234 55.02 164.013 55.308 164.931 55.308C166.296 55.308 167.245 54.732 167.778 53.58H173.603C173.304 54.7533 172.76 55.8093 171.971 56.748C171.203 57.6867 170.232 58.4227 169.059 58.956C167.885 59.4893 166.573 59.756 165.122 59.756C163.373 59.756 161.816 59.3827 160.45 58.636C159.085 57.8893 158.018 56.8227 157.25 55.436C156.482 54.0493 156.098 52.428 156.098 50.572C156.098 48.716 156.472 47.0947 157.218 45.708C157.986 44.3213 159.053 43.2547 160.418 42.508C161.784 41.7613 163.352 41.388 165.122 41.388C166.851 41.388 168.387 41.7507 169.731 42.476C171.075 43.2013 172.12 44.236 172.867 45.58C173.634 46.924 174.018 48.492 174.018 50.284ZM168.418 48.844C168.418 47.9053 168.098 47.1587 167.458 46.604C166.818 46.0493 166.019 45.772 165.059 45.772C164.141 45.772 163.362 46.0387 162.722 46.572C162.104 47.1053 161.72 47.8627 161.57 48.844H168.418ZM188.105 59.5L184.681 54.54L181.801 59.5H175.881L181.769 50.38L175.721 41.644H181.865L185.289 46.572L188.169 41.644H194.089L188.105 50.636L194.249 59.5H188.105ZM206.95 54.86V59.5H204.166C202.182 59.5 200.635 59.02 199.526 58.06C198.416 57.0787 197.862 55.4893 197.862 53.292V46.188H195.686V41.644H197.862V37.292H203.334V41.644H206.918V46.188H203.334V53.356C203.334 53.8893 203.462 54.2733 203.718 54.508C203.974 54.7427 204.4 54.86 204.998 54.86H206.95Z" fill="white"/>
<path d="M379.287 69.7129L400.5 48.4997M358.074 48.4997L400.5 48.4997M379.287 27.2865L400.5 48.4997" stroke="white" stroke-width="3" stroke-linecap="round" stroke-linejoin="round"/>
</g>
<defs>
<filter id="filter0_d_2743_18637" x="0.5" y="-85.5" width="530" height="276" filterUnits="userSpaceOnUse" color-interpolation-filters="sRGB">
<feFlood flood-opacity="0" result="BackgroundImageFix"/>
<feColorMatrix in="SourceAlpha" type="matrix" values="0 0 0 0 0 0 0 0 0 0 0 0 0 0 0 0 0 0 127 0" result="hardAlpha"/>
<feOffset dy="4"/>
<feGaussianBlur stdDeviation="45"/>
<feComposite in2="hardAlpha" operator="out"/>
<feColorMatrix type="matrix" values="0 0 0 0 0 0 0 0 0 0 0 0 0 0 0 0 0 0 0.5 0"/>
<feBlend mode="normal" in2="BackgroundImageFix" result="effect1_dropShadow_2743_18637"/>
<feBlend mode="normal" in="SourceGraphic" in2="effect1_dropShadow_2743_18637" result="shape"/>
</filter>
<linearGradient id="paint0_linear_2743_18637" x1="265.5" y1="0.5" x2="265.5" y2="96.5" gradientUnits="userSpaceOnUse">
<stop stop-color="#77AFFF"/>
<stop offset="1" stop-color="#0069FF"/>
</linearGradient>
</defs>
</svg>
