<svg fill="none" viewBox="0 0 32 24" xmlns="http://www.w3.org/2000/svg"><path d="m18.3 9.66c0.0934 2.71-2.55 5.12-5.24 4.63-2.81-0.349-4.64-3.6-3.63-6.21 0.778-2.5 3.91-3.88 6.26-2.65 1.59 0.754 2.63 2.48 2.62 4.23zm-2.29 0c0.101-1.77-2.13-3.02-3.56-1.94-1.59 0.979-1.21 3.7 0.604 4.18 1.44 0.49 3-0.736 2.96-2.23zm-16-6.44c-0.0617-1.75 1.63-3.17 3.34-2.93 7.17 0.01 14.3-0.0201 21.5 0.0151 1.7 0.132 2.78 1.87 2.57 3.47-0.00976 4.21 0.0196 8.43-0.0148 12.6-0.11 1.64-1.73 2.83-3.32 2.62-7.17-0.01-14.3 0.0201-21.5-0.0151-1.69-0.131-2.78-1.86-2.57-3.46v-12.3zm2.86-0.585c-0.857 0.146-0.493 1.17-0.571 1.78-0.229 0.71 0.379 0.583 0.875 0.567 1 0.173 1.57-0.847 1.41-1.73 0.216-0.712-0.338-0.654-0.875-0.613-0.278-0.00349-0.565 0.00687-0.837-5e-3zm-0.571 13.5c0.127 0.871 1.15 0.508 1.76 0.585 0.723 0.232 0.488-0.493 0.517-0.954 0.165-1.04-0.901-1.54-1.78-1.39-0.719-0.233-0.468 0.504-0.504 0.954 0.00118 0.263-0.00245 0.555 2e-3 0.801zm4.57-0.585c0.119 0.377-0.291 1.28 0.318 1.17h13.4c-0.0633-1.34 0.0227-2.83 1.12-3.77 0.903-0.925 2.23-0.955 3.44-0.91v-4.68c-1.26 0.0565-2.66-0.00724-3.56-1.03-1.01-0.943-1.05-2.37-1-3.65h-13.7c0.0633 1.34-0.0227 2.83-1.12 3.77-0.903 0.925-2.23 0.955-3.44 0.91v4.68c1.26-0.0565 2.66 0.0072 3.56 1.03 0.643 0.653 1 1.57 1 2.48zm16 1.17c0.7-0.0702 1.48 0.165 2.11-0.171 0.325-0.657 0.101-1.45 0.167-2.17-0.776 0.0263-1.84-0.204-2.2 0.723-0.156 0.521-0.0632 1.08-0.0852 1.62zm2.29-11.7c-0.0712-0.72 0.166-1.52-0.167-2.17-0.633-0.332-1.41-0.104-2.11-0.171 0.0052 0.847-0.186 2.08 0.919 2.32 0.449 0.0496 0.924 0.00581 1.36 0.0278zm-17.1 18.7c-1.35 0.203-3.39-1.51-3.03-2.38 3 0.105 6 0.0199 9 0.0473 3.71-0.0164 7.43 0.0333 11.1-0.0258 2.79-0.22 4.9-2.97 4.64-5.71v-10.4c1.63 0.541 2.46 2.31 2.29 3.95-0.0304 2.63 0.0649 5.27-0.056 7.9-0.354 3.58-3.56 6.65-7.19 6.67-5.59 0.0054-11.2 7.73e-4 -16.8 0.0023z" fill="#fffafa"/></svg>
