<svg width="40" height="40" viewBox="0 0 40 40" fill="none" xmlns="http://www.w3.org/2000/svg">
<rect x="1.5" y="1.5" width="37" height="37" rx="18.5" stroke="white" stroke-opacity="0.5" stroke-width="3"/>
<path d="M21.1311 10.5L20.8607 24.0135H18.9918L18.7213 10.5H21.1311ZM20.0246 29.5C19.5984 29.5 19.2377 29.3378 18.9426 29.0135C18.6475 28.6892 18.5 28.2928 18.5 27.8243C18.5 27.3559 18.6475 26.9595 18.9426 26.6351C19.2377 26.3108 19.5984 26.1486 20.0246 26.1486C20.4344 26.1486 20.7787 26.3108 21.0574 26.6351C21.3525 26.9595 21.5 27.3559 21.5 27.8243C21.5 28.2928 21.3525 28.6892 21.0574 29.0135C20.7787 29.3378 20.4344 29.5 20.0246 29.5Z" fill="white" fill-opacity="0.5"/>
</svg>
