<svg width="70" height="56" viewBox="0 0 70 56" fill="none" xmlns="http://www.w3.org/2000/svg">
<path d="M53.8409 0L54.2217 0.0462452C54.5928 0.134846 54.9261 0.350615 55.1625 0.663948L69.6578 19.8887C70.1704 20.569 70.0998 21.531 69.4951 22.1283L35.6802 55.5206C35.0265 56.1661 33.9809 56.1589 33.3364 55.5041L0.488327 22.1118C-0.115633 21.4979 -0.166045 20.5179 0.374396 19.8458L15.8333 0.621006L16.1002 0.360052C16.3906 0.129783 16.7501 0 17.1256 0H53.8409ZM34.6027 50.5195L49.1436 22.6073H21.6829L34.6027 50.5195ZM28.9419 46.2452L17.998 22.6073H5.68686L28.9419 46.2452ZM40.9243 45.6208L64.2314 22.6073H52.9131L40.9243 45.6208ZM52.8838 19.2248H64.9573L53.0173 3.3825H44.1241L52.8838 19.2248ZM21.7805 19.2248H49.0622L40.3058 3.3825H29.7427L21.7805 19.2248ZM5.17905 19.2248H18.037L25.9992 3.3825H17.9199L5.17905 19.2248Z" fill="white"/>
</svg>
