<svg width="40" height="40" viewBox="0 0 40 40" fill="none" xmlns="http://www.w3.org/2000/svg">
<g clip-path="url(#clip0_12657_174384)">
<path d="M1.95333 31.8633C0.703004 33.1133 0.000377583 34.8087 0 36.5767L0 39.9983H3.42167C5.18963 39.998 6.88505 39.2953 8.135 38.045L30.3733 15.8067L24.1917 9.625L1.95333 31.8633Z" fill="#252525"/>
<path d="M38.5745 1.42218C38.1687 1.0159 37.6867 0.693605 37.1562 0.473707C36.6257 0.253809 36.0571 0.140625 35.4829 0.140625C34.9086 0.140625 34.34 0.253809 33.8095 0.473707C33.279 0.693605 32.797 1.0159 32.3912 1.42218L26.5479 7.26718L32.7295 13.4488L38.5745 7.60551C38.9808 7.19966 39.3031 6.71771 39.523 6.18723C39.7429 5.65674 39.8561 5.08811 39.8561 4.51385C39.8561 3.93959 39.7429 3.37096 39.523 2.84047C39.3031 2.30998 38.9808 1.82803 38.5745 1.42218Z" fill="#252525"/>
</g>
<defs>
<clipPath id="clip0_12657_174384">
<rect width="40" height="40" fill="white"/>
</clipPath>
</defs>
</svg>
