<svg width="36" height="35" viewBox="0 0 36 35" fill="none" xmlns="http://www.w3.org/2000/svg">
<path d="M34.3147 9.87688L25.7125 1.27904C25.1038 0.649336 24.2931 0.253723 23.4222 0.161421C22.5512 0.069119 21.6756 0.286006 20.9484 0.774132C20.5197 1.07901 20.1627 1.47374 19.9022 1.93079C19.6418 2.38784 19.4841 2.89621 19.4403 3.42045C19.3965 3.94468 19.4676 4.47216 19.6486 4.9661C19.8296 5.46004 20.1162 5.90855 20.4884 6.28034L21.3448 7.13535C21.5631 7.3549 21.6855 7.65188 21.6855 7.96143C21.6855 8.27098 21.5631 8.56795 21.3448 8.7875L18.3067 11.8256C18.0401 12.0911 17.7093 12.283 17.3465 12.3826C16.9837 12.4822 16.6013 12.4862 16.2365 12.3942L15.0502 12.0904C13.6821 11.7333 12.2609 11.6259 10.8547 11.7735C9.93058 11.8696 9.05322 12.2279 8.32602 12.8062C7.59883 13.3845 7.05212 14.1586 6.75035 15.0373C6.41981 15.9456 6.35545 16.9294 6.56483 17.873C6.77421 18.8167 7.24863 19.6809 7.93232 20.3641L10.4583 22.9798L1.06764 32.3733C0.929463 32.5068 0.819249 32.6664 0.743428 32.8429C0.667607 33.0195 0.627698 33.2093 0.626028 33.4014C0.624359 33.5935 0.660963 33.784 0.733706 33.9618C0.806448 34.1396 0.913871 34.3011 1.04971 34.4369C1.18554 34.5728 1.34707 34.6802 1.52487 34.7529C1.70267 34.8257 1.89317 34.8623 2.08526 34.8606C2.27736 34.8589 2.4672 34.819 2.6437 34.7432C2.82021 34.6674 2.97984 34.5572 3.1133 34.419L12.4692 25.0631L14.2776 26.9351C15.5036 28.2358 17.1945 28.9983 18.9809 29.056C19.5584 29.0567 20.1318 28.9588 20.6765 28.7667C21.5076 28.4799 22.2377 27.9582 22.7785 27.265C23.3193 26.5717 23.6474 25.7365 23.7232 24.8605C23.8696 23.4672 23.7648 22.0589 23.4136 20.7027L23.1069 19.2183C23.0209 18.8563 23.029 18.4783 23.1303 18.1203C23.2315 17.7622 23.4227 17.436 23.6856 17.1727L26.7078 14.1548C26.9429 13.9392 27.247 13.8141 27.5657 13.8018C27.7057 13.8015 27.8443 13.8292 27.9735 13.8831C28.1027 13.937 28.2198 14.0161 28.318 14.1158L29.0501 14.8478C29.6556 15.4943 30.4717 15.9039 31.352 16.003C32.2322 16.1022 33.119 15.8845 33.8532 15.3889C34.282 15.0841 34.6391 14.6895 34.8997 14.2325C35.1603 13.7755 35.3181 13.2671 35.3621 12.7429C35.406 12.2187 35.335 11.6911 35.1541 11.1972C34.9732 10.7032 34.6868 10.2546 34.3147 9.88267L34.3147 9.87688Z" fill="white"/>
</svg>
