<svg width="40" height="40" viewBox="0 0 40 40" fill="none" xmlns="http://www.w3.org/2000/svg">
<rect x="1.5" y="1.5" width="37" height="37" rx="18.5" stroke="white" stroke-width="3"/>
<path d="M19.9564 10.232C21.8044 10.232 23.2977 10.7547 24.4364 11.8C25.5751 12.8453 26.1444 14.2453 26.1444 16C26.1444 17.96 25.5377 19.416 24.3244 20.368C23.1111 21.3013 21.4684 21.768 19.3964 21.768L19.3124 24.428H17.1004L16.9884 20.004H17.8004C19.6484 20.004 21.0951 19.724 22.1404 19.164C23.1857 18.604 23.7084 17.5493 23.7084 16C23.7084 14.88 23.3724 13.9933 22.7004 13.34C22.0284 12.6867 21.1231 12.36 19.9844 12.36C18.8271 12.36 17.9124 12.6773 17.2404 13.312C16.5871 13.928 16.2604 14.7773 16.2604 15.86H13.8524C13.8524 14.74 14.1044 13.76 14.6084 12.92C15.1124 12.0613 15.8217 11.3987 16.7364 10.932C17.6697 10.4653 18.7431 10.232 19.9564 10.232ZM18.1924 30.168C17.7071 30.168 17.2964 30 16.9604 29.664C16.6244 29.328 16.4564 28.9173 16.4564 28.432C16.4564 27.9467 16.6244 27.536 16.9604 27.2C17.2964 26.864 17.7071 26.696 18.1924 26.696C18.6591 26.696 19.0511 26.864 19.3684 27.2C19.7044 27.536 19.8724 27.9467 19.8724 28.432C19.8724 28.9173 19.7044 29.328 19.3684 29.664C19.0511 30 18.6591 30.168 18.1924 30.168Z" fill="white"/>
</svg>
