<svg width="1424" height="208" viewBox="0 0 1424 208" fill="none" xmlns="http://www.w3.org/2000/svg">
<rect width="12" height="26" rx="6" transform="matrix(1 0 0 -1 0 107)" fill="white"/>
<rect width="12" height="26" rx="6" transform="matrix(1 0 0 -1 25 107)" fill="white"/>
<rect width="12" height="26" rx="6" transform="matrix(1 0 0 -1 50 107)" fill="white"/>
<rect width="12" height="26" rx="6" transform="matrix(1 0 0 -1 75 107)" fill="white"/>
<rect width="12" height="26" rx="6" transform="matrix(1 0 0 -1 100 107)" fill="white"/>
<rect width="12" height="26" rx="6" transform="matrix(1 0 0 -1 125 107)" fill="white"/>
<rect width="12" height="26" rx="6" transform="matrix(1 0 0 -1 150 107)" fill="white"/>
<rect width="12" height="26" rx="6" transform="matrix(1 0 0 -1 175 107)" fill="white"/>
<rect width="12" height="26" rx="6" transform="matrix(1 0 0 -1 200 107)" fill="white"/>
<rect width="12" height="26" rx="6" transform="matrix(1 0 0 -1 225 107)" fill="white"/>
<rect width="12" height="26" rx="6" transform="matrix(1 0 0 -1 250 107)" fill="white"/>
<rect width="12" height="26" rx="6" transform="matrix(1 0 0 -1 275 107)" fill="white"/>
<rect width="12" height="26" rx="6" transform="matrix(1 0 0 -1 300 107)" fill="white"/>
<rect width="12" height="26" rx="6" transform="matrix(1 0 0 -1 325 107)" fill="white"/>
<rect width="12" height="26" rx="6" transform="matrix(1 0 0 -1 350 107)" fill="white"/>
<rect width="12" height="26" rx="6" transform="matrix(1 0 0 -1 375 107)" fill="white"/>
<rect width="12" height="26" rx="6" transform="matrix(1 0 0 -1 400 107)" fill="white"/>
<rect width="12" height="26" rx="6" transform="matrix(1 0 0 -1 425 107)" fill="white"/>
<rect width="12" height="20" rx="6" transform="matrix(1 0 0 -1 450 104)" fill="white"/>
<rect width="12" height="20" rx="6" transform="matrix(1 0 0 -1 475 104)" fill="white"/>
<rect width="12" height="20" rx="6" transform="matrix(1 0 0 -1 500 104)" fill="white"/>
<rect width="12" height="20" rx="6" transform="matrix(1 0 0 -1 525 104)" fill="white"/>
<rect width="12" height="20" rx="6" transform="matrix(1 0 0 -1 550 104)" fill="white"/>
<rect width="12" height="15" rx="6" transform="matrix(1 0 0 -1 575 101.5)" fill="white"/>
<rect width="12" height="15" rx="6" transform="matrix(1 0 0 -1 600 101.5)" fill="white"/>
<rect width="12" height="15" rx="6" transform="matrix(1 0 0 -1 625 101.5)" fill="white"/>
<rect width="12" height="15" rx="6" transform="matrix(1 0 0 -1 650 101.5)" fill="white"/>
<rect width="12" height="15" rx="6" transform="matrix(1 0 0 -1 675 101.5)" fill="white"/>
<rect width="12" height="15" rx="6" transform="matrix(1 0 0 -1 700 101.5)" fill="white"/>
<rect width="12" height="5" rx="2.5" transform="matrix(1 0 0 -1 725 96.5)" fill="white"/>
<rect width="12" height="5" rx="2.5" transform="matrix(1 0 0 -1 750 96.5)" fill="white"/>
<rect width="12" height="5" rx="2.5" transform="matrix(1 0 0 -1 775 96.5)" fill="white"/>
<rect width="12" height="5" rx="2.5" transform="matrix(1 0 0 -1 800 96.5)" fill="white"/>
<rect width="12" height="5" rx="2.5" transform="matrix(1 0 0 -1 825 96.5)" fill="white"/>
<rect width="12" height="5" rx="2.5" transform="matrix(1 0 0 -1 850 96.5)" fill="white"/>
<rect width="12" height="5" rx="2.5" transform="matrix(1 0 0 -1 875 96.5)" fill="white"/>
<rect width="12" height="5" rx="2.5" transform="matrix(1 0 0 -1 900 96.5)" fill="white"/>
<rect width="12" height="5" rx="2.5" transform="matrix(1 0 0 -1 925 96.5)" fill="white"/>
<rect width="12" height="5" rx="2.5" transform="matrix(1 0 0 -1 950 96.5)" fill="white"/>
<rect width="12" height="5" rx="2.5" transform="matrix(1 0 0 -1 975 96.5)" fill="white"/>
<rect width="12" height="5" rx="2.5" transform="matrix(1 0 0 -1 1000 96.5)" fill="white"/>
<rect width="12" height="5" rx="2.5" transform="matrix(1 0 0 -1 1025 96.5)" fill="white"/>
<rect width="12" height="5" rx="2.5" transform="matrix(1 0 0 -1 1050 96.5)" fill="white"/>
<rect width="12" height="5" rx="2.5" transform="matrix(1 0 0 -1 1075 96.5)" fill="white"/>
<rect width="12" height="5" rx="2.5" transform="matrix(1 0 0 -1 1100 96.5)" fill="white"/>
<rect width="12" height="5" rx="2.5" transform="matrix(1 0 0 -1 1125 96.5)" fill="white"/>
<rect width="12" height="5" rx="2.5" transform="matrix(1 0 0 -1 1150 96.5)" fill="white"/>
<rect width="12" height="5" rx="2.5" transform="matrix(1 0 0 -1 1175 96.5)" fill="white"/>
<rect width="12" height="5" rx="2.5" transform="matrix(1 0 0 -1 1200 96.5)" fill="white"/>
<rect width="12" height="5" rx="2.5" transform="matrix(1 0 0 -1 1225 96.5)" fill="white"/>
<rect width="12" height="4" rx="2" transform="matrix(1 0 0 -1 1250 96)" fill="white"/>
<rect width="12" height="4" rx="2" transform="matrix(1 0 0 -1 1275 96)" fill="white"/>
<g filter="url(#filter0_d_10165_59305)">
<rect x="1222" width="198" height="200" rx="99" fill="#323232" shape-rendering="crispEdges"/>
<rect x="1224.5" y="2.5" width="193" height="195" rx="96.5" stroke="white" stroke-width="5" shape-rendering="crispEdges"/>
<path d="M1354.47 106.834C1359.63 104.259 1359.64 96.8966 1354.48 94.312L1306.14 70.0804C1301.48 67.7475 1296 71.1316 1296 76.3382L1296 124.686C1296 129.886 1301.47 133.271 1306.12 130.95L1354.47 106.834Z" fill="white" stroke="white" stroke-width="2" stroke-linejoin="round"/>
</g>
<defs>
<filter id="filter0_d_10165_59305" x="1218" y="0" width="206" height="208" filterUnits="userSpaceOnUse" color-interpolation-filters="sRGB">
<feFlood flood-opacity="0" result="BackgroundImageFix"/>
<feColorMatrix in="SourceAlpha" type="matrix" values="0 0 0 0 0 0 0 0 0 0 0 0 0 0 0 0 0 0 127 0" result="hardAlpha"/>
<feOffset dy="4"/>
<feGaussianBlur stdDeviation="2"/>
<feComposite in2="hardAlpha" operator="out"/>
<feColorMatrix type="matrix" values="0 0 0 0 0 0 0 0 0 0 0 0 0 0 0 0 0 0 0.25 0"/>
<feBlend mode="normal" in2="BackgroundImageFix" result="effect1_dropShadow_10165_59305"/>
<feBlend mode="normal" in="SourceGraphic" in2="effect1_dropShadow_10165_59305" result="shape"/>
</filter>
</defs>
</svg>
