<svg width="1500" height="150" viewBox="0 0 1500 150" fill="none" xmlns="http://www.w3.org/2000/svg">
<rect width="1500" height="150" rx="75" fill="#0069FF"/>
<path d="M95.54 87.5L89.73 77.525H85.88V87.5H82.695V63.105H90.57C92.4133 63.105 93.965 63.42 95.225 64.05C96.5083 64.68 97.465 65.5317 98.095 66.605C98.725 67.6783 99.04 68.9033 99.04 70.28C99.04 71.96 98.55 73.4417 97.57 74.725C96.6133 76.0083 95.1667 76.86 93.23 77.28L99.355 87.5H95.54ZM85.88 74.97H90.57C92.2967 74.97 93.5917 74.55 94.455 73.71C95.3183 72.8467 95.75 71.7033 95.75 70.28C95.75 68.8333 95.3183 67.7133 94.455 66.92C93.615 66.1267 92.32 65.73 90.57 65.73H85.88V74.97ZM122.189 77.175C122.189 77.7817 122.154 78.4233 122.084 79.1H106.754C106.871 80.99 107.512 82.4717 108.679 83.545C109.869 84.595 111.304 85.12 112.984 85.12C114.361 85.12 115.504 84.805 116.414 84.175C117.347 83.5217 118.001 82.6583 118.374 81.585H121.804C121.291 83.4283 120.264 84.9333 118.724 86.1C117.184 87.2433 115.271 87.815 112.984 87.815C111.164 87.815 109.531 87.4067 108.084 86.59C106.661 85.7733 105.541 84.6183 104.724 83.125C103.907 81.6083 103.499 79.8583 103.499 77.875C103.499 75.8917 103.896 74.1533 104.689 72.66C105.482 71.1667 106.591 70.0233 108.014 69.23C109.461 68.4133 111.117 68.005 112.984 68.005C114.804 68.005 116.414 68.4017 117.814 69.195C119.214 69.9883 120.287 71.085 121.034 72.485C121.804 73.8617 122.189 75.425 122.189 77.175ZM118.899 76.51C118.899 75.2967 118.631 74.2583 118.094 73.395C117.557 72.5083 116.822 71.8433 115.889 71.4C114.979 70.9333 113.964 70.7 112.844 70.7C111.234 70.7 109.857 71.2133 108.714 72.24C107.594 73.2667 106.952 74.69 106.789 76.51H118.899ZM125.903 77.875C125.903 75.8917 126.3 74.165 127.093 72.695C127.886 71.2017 128.983 70.0467 130.383 69.23C131.806 68.4133 133.428 68.005 135.248 68.005C137.605 68.005 139.541 68.5767 141.058 69.72C142.598 70.8633 143.613 72.45 144.103 74.48H140.673C140.346 73.3133 139.705 72.3917 138.748 71.715C137.815 71.0383 136.648 70.7 135.248 70.7C133.428 70.7 131.958 71.33 130.838 72.59C129.718 73.8267 129.158 75.5883 129.158 77.875C129.158 80.185 129.718 81.97 130.838 83.23C131.958 84.49 133.428 85.12 135.248 85.12C136.648 85.12 137.815 84.7933 138.748 84.14C139.681 83.4867 140.323 82.5533 140.673 81.34H144.103C143.59 83.3 142.563 84.875 141.023 86.065C139.483 87.2317 137.558 87.815 135.248 87.815C133.428 87.815 131.806 87.4067 130.383 86.59C128.983 85.7733 127.886 84.6183 127.093 83.125C126.3 81.6317 125.903 79.8817 125.903 77.875ZM157.418 87.815C155.621 87.815 153.988 87.4067 152.518 86.59C151.071 85.7733 149.928 84.6183 149.088 83.125C148.271 81.6083 147.863 79.8583 147.863 77.875C147.863 75.915 148.283 74.1883 149.123 72.695C149.986 71.1783 151.153 70.0233 152.623 69.23C154.093 68.4133 155.738 68.005 157.558 68.005C159.378 68.005 161.023 68.4133 162.493 69.23C163.963 70.0233 165.118 71.1667 165.958 72.66C166.821 74.1533 167.253 75.8917 167.253 77.875C167.253 79.8583 166.809 81.6083 165.923 83.125C165.059 84.6183 163.881 85.7733 162.388 86.59C160.894 87.4067 159.238 87.815 157.418 87.815ZM157.418 85.015C158.561 85.015 159.634 84.7467 160.638 84.21C161.641 83.6733 162.446 82.8683 163.053 81.795C163.683 80.7217 163.998 79.415 163.998 77.875C163.998 76.335 163.694 75.0283 163.088 73.955C162.481 72.8817 161.688 72.0883 160.708 71.575C159.728 71.0383 158.666 70.77 157.523 70.77C156.356 70.77 155.283 71.0383 154.303 71.575C153.346 72.0883 152.576 72.8817 151.993 73.955C151.409 75.0283 151.118 76.335 151.118 77.875C151.118 79.4383 151.398 80.7567 151.958 81.83C152.541 82.9033 153.311 83.7083 154.268 84.245C155.224 84.7583 156.274 85.015 157.418 85.015ZM175.326 71.435C175.886 70.3383 176.679 69.4867 177.706 68.88C178.756 68.2733 180.027 67.97 181.521 67.97V71.26H180.681C177.111 71.26 175.326 73.1967 175.326 77.07V87.5H172.141V68.32H175.326V71.435ZM184.707 77.84C184.707 75.88 185.104 74.165 185.897 72.695C186.69 71.2017 187.775 70.0467 189.152 69.23C190.552 68.4133 192.115 68.005 193.842 68.005C195.335 68.005 196.724 68.355 198.007 69.055C199.29 69.7317 200.27 70.63 200.947 71.75V61.6H204.167V87.5H200.947V83.895C200.317 85.0383 199.384 85.9833 198.147 86.73C196.91 87.4533 195.464 87.815 193.807 87.815C192.104 87.815 190.552 87.395 189.152 86.555C187.775 85.715 186.69 84.5367 185.897 83.02C185.104 81.5033 184.707 79.7767 184.707 77.84ZM200.947 77.875C200.947 76.4283 200.655 75.1683 200.072 74.095C199.489 73.0217 198.695 72.205 197.692 71.645C196.712 71.0617 195.627 70.77 194.437 70.77C193.247 70.77 192.162 71.05 191.182 71.61C190.202 72.17 189.42 72.9867 188.837 74.06C188.254 75.1333 187.962 76.3933 187.962 77.84C187.962 79.31 188.254 80.5933 188.837 81.69C189.42 82.7633 190.202 83.5917 191.182 84.175C192.162 84.735 193.247 85.015 194.437 85.015C195.627 85.015 196.712 84.735 197.692 84.175C198.695 83.5917 199.489 82.7633 200.072 81.69C200.655 80.5933 200.947 79.3217 200.947 77.875ZM219.091 77.84C219.091 75.88 219.487 74.165 220.281 72.695C221.074 71.2017 222.159 70.0467 223.536 69.23C224.936 68.4133 226.487 68.005 228.191 68.005C229.871 68.005 231.329 68.3667 232.566 69.09C233.802 69.8133 234.724 70.7233 235.331 71.82V68.32H238.551V87.5H235.331V83.93C234.701 85.05 233.756 85.9833 232.496 86.73C231.259 87.4533 229.812 87.815 228.156 87.815C226.452 87.815 224.912 87.395 223.536 86.555C222.159 85.715 221.074 84.5367 220.281 83.02C219.487 81.5033 219.091 79.7767 219.091 77.84ZM235.331 77.875C235.331 76.4283 235.039 75.1683 234.456 74.095C233.872 73.0217 233.079 72.205 232.076 71.645C231.096 71.0617 230.011 70.77 228.821 70.77C227.631 70.77 226.546 71.05 225.566 71.61C224.586 72.17 223.804 72.9867 223.221 74.06C222.637 75.1333 222.346 76.3933 222.346 77.84C222.346 79.31 222.637 80.5933 223.221 81.69C223.804 82.7633 224.586 83.5917 225.566 84.175C226.546 84.735 227.631 85.015 228.821 85.015C230.011 85.015 231.096 84.735 232.076 84.175C233.079 83.5917 233.872 82.7633 234.456 81.69C235.039 80.5933 235.331 79.3217 235.331 77.875ZM252.543 68.005C254.2 68.005 255.646 68.3667 256.883 69.09C258.143 69.8133 259.076 70.7233 259.683 71.82V68.32H262.903V87.92C262.903 89.67 262.53 91.2217 261.783 92.575C261.036 93.9517 259.963 95.025 258.563 95.795C257.186 96.565 255.576 96.95 253.733 96.95C251.213 96.95 249.113 96.355 247.433 95.165C245.753 93.975 244.761 92.3533 244.458 90.3H247.608C247.958 91.4667 248.681 92.4 249.778 93.1C250.875 93.8233 252.193 94.185 253.733 94.185C255.483 94.185 256.906 93.6367 258.003 92.54C259.123 91.4433 259.683 89.9033 259.683 87.92V83.895C259.053 85.015 258.12 85.9483 256.883 86.695C255.646 87.4417 254.2 87.815 252.543 87.815C250.84 87.815 249.288 87.395 247.888 86.555C246.511 85.715 245.426 84.5367 244.633 83.02C243.84 81.5033 243.443 79.7767 243.443 77.84C243.443 75.88 243.84 74.165 244.633 72.695C245.426 71.2017 246.511 70.0467 247.888 69.23C249.288 68.4133 250.84 68.005 252.543 68.005ZM259.683 77.875C259.683 76.4283 259.391 75.1683 258.808 74.095C258.225 73.0217 257.431 72.205 256.428 71.645C255.448 71.0617 254.363 70.77 253.173 70.77C251.983 70.77 250.898 71.05 249.918 71.61C248.938 72.17 248.156 72.9867 247.573 74.06C246.99 75.1333 246.698 76.3933 246.698 77.84C246.698 79.31 246.99 80.5933 247.573 81.69C248.156 82.7633 248.938 83.5917 249.918 84.175C250.898 84.735 251.983 85.015 253.173 85.015C254.363 85.015 255.448 84.735 256.428 84.175C257.431 83.5917 258.225 82.7633 258.808 81.69C259.391 80.5933 259.683 79.3217 259.683 77.875ZM267.795 77.84C267.795 75.88 268.192 74.165 268.985 72.695C269.779 71.2017 270.864 70.0467 272.24 69.23C273.64 68.4133 275.192 68.005 276.895 68.005C278.575 68.005 280.034 68.3667 281.27 69.09C282.507 69.8133 283.429 70.7233 284.035 71.82V68.32H287.255V87.5H284.035V83.93C283.405 85.05 282.46 85.9833 281.2 86.73C279.964 87.4533 278.517 87.815 276.86 87.815C275.157 87.815 273.617 87.395 272.24 86.555C270.864 85.715 269.779 84.5367 268.985 83.02C268.192 81.5033 267.795 79.7767 267.795 77.84ZM284.035 77.875C284.035 76.4283 283.744 75.1683 283.16 74.095C282.577 73.0217 281.784 72.205 280.78 71.645C279.8 71.0617 278.715 70.77 277.525 70.77C276.335 70.77 275.25 71.05 274.27 71.61C273.29 72.17 272.509 72.9867 271.925 74.06C271.342 75.1333 271.05 76.3933 271.05 77.84C271.05 79.31 271.342 80.5933 271.925 81.69C272.509 82.7633 273.29 83.5917 274.27 84.175C275.25 84.735 276.335 85.015 277.525 85.015C278.715 85.015 279.8 84.735 280.78 84.175C281.784 83.5917 282.577 82.7633 283.16 81.69C283.744 80.5933 284.035 79.3217 284.035 77.875ZM294.983 65.205C294.376 65.205 293.863 64.995 293.443 64.575C293.023 64.155 292.813 63.6417 292.813 63.035C292.813 62.4283 293.023 61.915 293.443 61.495C293.863 61.075 294.376 60.865 294.983 60.865C295.566 60.865 296.056 61.075 296.453 61.495C296.873 61.915 297.083 62.4283 297.083 63.035C297.083 63.6417 296.873 64.155 296.453 64.575C296.056 64.995 295.566 65.205 294.983 65.205ZM296.523 68.32V87.5H293.338V68.32H296.523ZM311.996 67.97C314.329 67.97 316.219 68.6817 317.666 70.105C319.113 71.505 319.836 73.535 319.836 76.195V87.5H316.686V76.65C316.686 74.7367 316.208 73.2783 315.251 72.275C314.294 71.2483 312.988 70.735 311.331 70.735C309.651 70.735 308.309 71.26 307.306 72.31C306.326 73.36 305.836 74.8883 305.836 76.895V87.5H302.651V68.32H305.836V71.05C306.466 70.07 307.318 69.3117 308.391 68.775C309.488 68.2383 310.689 67.97 311.996 67.97Z" fill="white"/>
<rect x="1376.09" y="38.5" width="28.5556" height="46.3412" rx="14.2778" stroke="white" stroke-width="7" stroke-linecap="round"/>
<path d="M1360.74 67.5938V68.5806C1360.74 84.9446 1374.01 98.2103 1390.37 98.2103V98.2103M1420 67.5938L1420 68.5806C1420 84.9448 1406.73 98.2103 1390.37 98.2103V98.2103M1390.37 98.2103V115" stroke="white" stroke-width="7" stroke-linecap="round"/>
</svg>
