<svg width="1420" height="200" viewBox="0 0 1420 200" fill="none" xmlns="http://www.w3.org/2000/svg">
<rect width="12" height="26" rx="6" transform="matrix(1 0 0 -1 0 107)" fill="white"/>
<rect width="12" height="26" rx="6" transform="matrix(1 0 0 -1 25 107)" fill="white"/>
<rect width="12" height="26" rx="6" transform="matrix(1 0 0 -1 50 107)" fill="white"/>
<rect width="12" height="26" rx="6" transform="matrix(1 0 0 -1 75 107)" fill="white"/>
<rect width="12" height="26" rx="6" transform="matrix(1 0 0 -1 100 107)" fill="white"/>
<rect width="12" height="26" rx="6" transform="matrix(1 0 0 -1 125 107)" fill="white"/>
<rect width="12" height="26" rx="6" transform="matrix(1 0 0 -1 150 107)" fill="white"/>
<rect width="12" height="26" rx="6" transform="matrix(1 0 0 -1 175 107)" fill="white"/>
<rect width="12" height="26" rx="6" transform="matrix(1 0 0 -1 200 107)" fill="white"/>
<rect width="12" height="26" rx="6" transform="matrix(1 0 0 -1 225 107)" fill="white"/>
<rect width="12" height="26" rx="6" transform="matrix(1 0 0 -1 250 107)" fill="white"/>
<rect width="12" height="26" rx="6" transform="matrix(1 0 0 -1 275 107)" fill="white"/>
<rect width="12" height="26" rx="6" transform="matrix(1 0 0 -1 300 107)" fill="white"/>
<rect width="12" height="26" rx="6" transform="matrix(1 0 0 -1 325 107)" fill="white"/>
<rect width="12" height="26" rx="6" transform="matrix(1 0 0 -1 350 107)" fill="white"/>
<rect width="12" height="26" rx="6" transform="matrix(1 0 0 -1 375 107)" fill="white"/>
<rect width="12" height="26" rx="6" transform="matrix(1 0 0 -1 400 107)" fill="white"/>
<rect width="12" height="26" rx="6" transform="matrix(1 0 0 -1 425 107)" fill="white"/>
<rect width="12" height="20" rx="6" transform="matrix(1 0 0 -1 450 104)" fill="white"/>
<rect width="12" height="20" rx="6" transform="matrix(1 0 0 -1 475 104)" fill="white"/>
<rect width="12" height="20" rx="6" transform="matrix(1 0 0 -1 500 104)" fill="white"/>
<rect width="12" height="20" rx="6" transform="matrix(1 0 0 -1 525 104)" fill="white"/>
<rect width="12" height="20" rx="6" transform="matrix(1 0 0 -1 550 104)" fill="white"/>
<rect width="12" height="15" rx="6" transform="matrix(1 0 0 -1 575 101.5)" fill="white"/>
<rect width="12" height="15" rx="6" transform="matrix(1 0 0 -1 600 101.5)" fill="white"/>
<rect width="12" height="15" rx="6" transform="matrix(1 0 0 -1 625 101.5)" fill="white"/>
<rect width="12" height="15" rx="6" transform="matrix(1 0 0 -1 650 101.5)" fill="white"/>
<rect width="12" height="15" rx="6" transform="matrix(1 0 0 -1 675 101.5)" fill="white"/>
<rect width="12" height="15" rx="6" transform="matrix(1 0 0 -1 700 101.5)" fill="white"/>
<rect width="12" height="5" rx="2.5" transform="matrix(1 0 0 -1 725 96.5)" fill="white"/>
<rect width="12" height="5" rx="2.5" transform="matrix(1 0 0 -1 750 96.5)" fill="white"/>
<rect width="12" height="5" rx="2.5" transform="matrix(1 0 0 -1 775 96.5)" fill="white"/>
<rect width="12" height="5" rx="2.5" transform="matrix(1 0 0 -1 800 96.5)" fill="white"/>
<rect width="12" height="5" rx="2.5" transform="matrix(1 0 0 -1 825 96.5)" fill="white"/>
<rect width="12" height="5" rx="2.5" transform="matrix(1 0 0 -1 850 96.5)" fill="white"/>
<rect width="12" height="5" rx="2.5" transform="matrix(1 0 0 -1 875 96.5)" fill="white"/>
<rect width="12" height="5" rx="2.5" transform="matrix(1 0 0 -1 900 96.5)" fill="white"/>
<rect width="12" height="5" rx="2.5" transform="matrix(1 0 0 -1 925 96.5)" fill="white"/>
<rect width="12" height="5" rx="2.5" transform="matrix(1 0 0 -1 950 96.5)" fill="white"/>
<rect width="12" height="5" rx="2.5" transform="matrix(1 0 0 -1 975 96.5)" fill="white"/>
<rect width="12" height="5" rx="2.5" transform="matrix(1 0 0 -1 1000 96.5)" fill="white"/>
<rect width="12" height="5" rx="2.5" transform="matrix(1 0 0 -1 1025 96.5)" fill="white"/>
<rect width="12" height="5" rx="2.5" transform="matrix(1 0 0 -1 1050 96.5)" fill="white"/>
<rect width="12" height="5" rx="2.5" transform="matrix(1 0 0 -1 1075 96.5)" fill="white"/>
<rect width="12" height="5" rx="2.5" transform="matrix(1 0 0 -1 1100 96.5)" fill="white"/>
<rect width="12" height="5" rx="2.5" transform="matrix(1 0 0 -1 1125 96.5)" fill="white"/>
<rect width="12" height="5" rx="2.5" transform="matrix(1 0 0 -1 1150 96.5)" fill="white"/>
<rect width="12" height="5" rx="2.5" transform="matrix(1 0 0 -1 1175 96.5)" fill="white"/>
<rect width="12" height="5" rx="2.5" transform="matrix(1 0 0 -1 1200 96.5)" fill="white"/>
<rect width="12" height="5" rx="2.5" transform="matrix(1 0 0 -1 1225 96.5)" fill="white"/>
<rect width="12" height="4" rx="2" transform="matrix(1 0 0 -1 1250 96)" fill="white"/>
<rect width="12" height="4" rx="2" transform="matrix(1 0 0 -1 1275 96)" fill="white"/>
</svg>
