<svg width="41" height="42" viewBox="0 0 41 42" fill="none" xmlns="http://www.w3.org/2000/svg">
<path opacity="0.7" d="M37.8111 41.5L23.4611 27.15C22.3222 28.0611 21.0125 28.7824 19.5319 29.3139C18.0514 29.8454 16.4759 30.1111 14.8056 30.1111C10.6676 30.1111 7.16551 28.678 4.29931 25.8118C1.4331 22.9456 0 19.4435 0 15.3056C0 11.1676 1.4331 7.66551 4.29931 4.79931C7.16551 1.9331 10.6676 0.5 14.8056 0.5C18.9435 0.5 22.4456 1.9331 25.3118 4.79931C28.178 7.66551 29.6111 11.1676 29.6111 15.3056C29.6111 16.9759 29.3454 18.5514 28.8139 20.0319C28.2824 21.5125 27.5611 22.8222 26.65 23.9611L41 38.3111L37.8111 41.5ZM14.8056 25.5556C17.6528 25.5556 20.0729 24.559 22.066 22.566C24.059 20.5729 25.0556 18.1528 25.0556 15.3056C25.0556 12.4583 24.059 10.0382 22.066 8.04514C20.0729 6.05208 17.6528 5.05556 14.8056 5.05556C11.9583 5.05556 9.53819 6.05208 7.54514 8.04514C5.55208 10.0382 4.55556 12.4583 4.55556 15.3056C4.55556 18.1528 5.55208 20.5729 7.54514 22.566C9.53819 24.559 11.9583 25.5556 14.8056 25.5556Z" fill="#E3E3E3"/>
</svg>
