<svg width="50" height="41" viewBox="0 0 50 41" fill="none" xmlns="http://www.w3.org/2000/svg">
<path d="M12.6539 28.4204H5.24647C4.59162 28.4204 3.96359 28.1506 3.50053 27.6704C3.03748 27.1901 2.77734 26.5388 2.77734 25.8597V5.37439C2.77734 4.69525 3.03748 4.04394 3.50053 3.56372C3.96359 3.0835 4.59162 2.81372 5.24647 2.81372H34.876C35.5309 2.81372 36.1589 3.0835 36.6219 3.56372C37.085 4.04394 37.3451 4.69525 37.3451 5.37439V13.0564" stroke="white" stroke-width="4" stroke-linecap="round" stroke-linejoin="round"/>
<path d="M12.6533 15.6173C12.6533 14.9382 12.9135 14.2869 13.3765 13.8066C13.8396 13.3264 14.4676 13.0566 15.1224 13.0566H44.752C45.4068 13.0566 46.0349 13.3264 46.4979 13.8066C46.961 14.2869 47.2211 14.9382 47.2211 15.6173V36.1026C47.2211 36.7818 46.961 37.4331 46.4979 37.9133C46.0349 38.3935 45.4068 38.6633 44.752 38.6633H15.1224C14.4676 38.6633 13.8396 38.3935 13.3765 37.9133C12.9135 37.4331 12.6533 36.7818 12.6533 36.1026V15.6173Z" stroke="white" stroke-width="4" stroke-linecap="round" stroke-linejoin="round"/>
<path d="M24.999 25.8596C24.999 27.2179 25.5193 28.5205 26.4454 29.4809C27.3715 30.4414 28.6276 30.9809 29.9373 30.9809C31.247 30.9809 32.503 30.4414 33.4292 29.4809C34.3553 28.5205 34.8755 27.2179 34.8755 25.8596C34.8755 24.5013 34.3553 23.1987 33.4292 22.2383C32.503 21.2778 31.247 20.7383 29.9373 20.7383C28.6276 20.7383 27.3715 21.2778 26.4454 22.2383C25.5193 23.1987 24.999 24.5013 24.999 25.8596Z" stroke="white" stroke-width="4" stroke-linecap="round" stroke-linejoin="round"/>
</svg>
