<svg width="66" height="62" viewBox="0 0 66 62" fill="none" xmlns="http://www.w3.org/2000/svg">
<path id="Vector" d="M62.4263 3.5356L28.8199 34.9078M3.74055 23.4549L61.4339 3.07108C61.6421 2.99677 61.8688 2.9803 62.0867 3.02367C62.3047 3.06705 62.5045 3.1684 62.662 3.31549C62.8196 3.46258 62.9282 3.64912 62.9746 3.85256C63.0211 4.05601 63.0035 4.26766 62.9239 4.46196L41.0884 58.3198C41.0015 58.5243 40.8496 58.6991 40.6532 58.8207C40.4568 58.9422 40.2252 59.0047 39.9895 58.9997C39.7539 58.9947 39.5256 58.9225 39.3352 58.7928C39.1449 58.663 39.0017 58.482 38.9249 58.274L29.2035 35.9109C29.0902 35.594 28.8994 35.306 28.6464 35.0697C28.3933 34.8335 28.0848 34.6554 27.7453 34.5496L3.78959 25.4827C3.56391 25.4126 3.36695 25.2791 3.22566 25.1005C3.08438 24.9219 3.00566 24.7069 3.00029 24.4849C2.99493 24.2629 3.06317 24.0448 3.19568 23.8605C3.32818 23.6761 3.51849 23.5344 3.74055 23.4549Z" stroke="#FFFAFA" stroke-width="5" stroke-linecap="round" stroke-linejoin="round"/>
</svg>
