<svg width="37" height="29" viewBox="0 0 37 29" fill="none" xmlns="http://www.w3.org/2000/svg">
<path fill-rule="evenodd" clip-rule="evenodd" d="M35.9862 11.2779C35.3666 11.8788 34.3775 11.8635 33.7767 11.244L28.1276 5.41833V26.5625C28.1276 27.4254 27.428 28.125 26.5651 28.125C25.7022 28.125 25.0026 27.4254 25.0026 26.5625V5.41833L19.3534 11.244C18.7528 11.8635 17.7636 11.8788 17.1441 11.2779C16.5245 10.6773 16.5093 9.68802 17.1101 9.06852L25.4434 0.474771C25.7377 0.171292 26.1424 0 26.5651 0C26.9878 0 27.3925 0.171292 27.6868 0.474771L36.0201 9.06852C36.6209 9.68802 36.6057 10.6773 35.9862 11.2779ZM19.3195 16.8471C19.9391 17.4477 19.9543 18.4369 19.3534 19.0565L11.0201 27.6502C10.7259 27.9538 10.3211 28.125 9.89844 28.125C9.47573 28.125 9.07094 27.9538 8.77677 27.6502L0.443436 19.0565C-0.157398 18.4369 -0.142189 17.4477 0.477394 16.8471C1.09698 16.2463 2.08615 16.2615 2.68678 16.881L8.33594 22.7067V1.5625C8.33594 0.699563 9.03552 0 9.89844 0C10.7614 0 11.4609 0.699563 11.4609 1.5625V22.7067L17.1101 16.881C17.7107 16.2615 18.6999 16.2463 19.3195 16.8471Z" fill="white"/>
</svg>
