<svg width="50" height="50" viewBox="0 0 50 50" fill="none" xmlns="http://www.w3.org/2000/svg">
<path d="M25 43.75C35.3554 43.75 43.75 35.3554 43.75 25C43.75 14.6447 35.3554 6.25 25 6.25C14.6447 6.25 6.25 14.6447 6.25 25C6.25 35.3554 14.6447 43.75 25 43.75Z" stroke="white" stroke-opacity="0.5" stroke-width="3" stroke-linecap="round" stroke-linejoin="round"/>
<path d="M25 11C25.8284 11 26.5 11.6716 26.5 12.5V24.3789L34.8936 32.7725C35.4793 33.3582 35.4793 34.3078 34.8936 34.8936C34.3078 35.4793 33.3582 35.4793 32.7725 34.8936L23.9395 26.0605C23.8686 25.9897 23.8046 25.9119 23.749 25.8281C23.7425 25.8182 23.7368 25.8078 23.7305 25.7979C23.6851 25.7259 23.646 25.6498 23.6133 25.5703C23.6125 25.5683 23.6112 25.5665 23.6104 25.5645L23.5674 25.4463C23.5662 25.4425 23.5656 25.4384 23.5645 25.4346C23.5584 25.4145 23.553 25.3943 23.5479 25.374C23.5171 25.2544 23.5 25.1292 23.5 25V12.5C23.5 11.6716 24.1716 11 25 11Z" fill="white" fill-opacity="0.5"/>
</svg>
