<svg width="38" height="38" viewBox="0 0 38 38" fill="none" xmlns="http://www.w3.org/2000/svg">
<path d="M18.9998 26.9167C19.8742 26.9167 20.5832 27.6256 20.5832 28.5001C20.5832 29.3745 19.8742 30.0834 18.9998 30.0834C18.1253 30.0834 17.4165 29.3745 17.4165 28.5001C17.4165 27.6256 18.1253 26.9168 18.9998 26.9167Z" fill="#F7931A"/>
<path d="M18.9998 7.91669C19.4197 7.91669 19.8224 8.08355 20.1194 8.38048C20.4163 8.67741 20.5832 9.08014 20.5832 9.50007V22.1668C20.5832 22.5867 20.4163 22.9893 20.1194 23.2863C19.8224 23.5832 19.4197 23.7501 18.9998 23.7501C18.5799 23.7501 18.1771 23.5832 17.8802 23.2863C17.5833 22.9893 17.4165 22.5867 17.4165 22.1668V9.50007C17.4165 9.08015 17.5833 8.67741 17.8802 8.38048C18.1771 8.08355 18.5799 7.91669 18.9998 7.91669Z" fill="#F7931A"/>
<path fill-rule="evenodd" clip-rule="evenodd" d="M19 0C24.0374 0.00544837 28.867 2.00896 32.429 5.57097C35.991 9.13298 37.9946 13.9626 38 19C38 22.7578 36.8857 26.4313 34.7979 29.5558C32.7102 32.6803 29.7428 35.1157 26.271 36.5537C22.7992 37.9918 18.9789 38.368 15.2933 37.6349C11.6076 36.9018 8.22215 35.0922 5.56496 32.435C2.90777 29.7778 1.0982 26.3924 0.365079 22.7067C-0.36804 19.0211 0.00825924 15.2008 1.44632 11.729C2.88439 8.25723 5.31966 5.28981 8.4442 3.20206C11.5687 1.11432 15.2422 2.08083e-06 19 0ZM25.0592 4.37187C22.166 3.17349 18.9824 2.85995 15.9111 3.47088C12.8397 4.08182 10.0185 5.5898 7.80413 7.80413C5.5898 10.0185 4.08182 12.8397 3.47089 15.9111C2.85996 18.9824 3.17356 22.166 4.37195 25.0592C5.57034 27.9523 7.59972 30.4251 10.2035 32.1649C12.8073 33.9047 15.8685 34.8333 19 34.8333C23.1978 34.8287 27.2225 33.1591 30.1908 30.1908C33.1591 27.2225 34.8287 23.1978 34.8333 19C34.8333 15.8685 33.9047 12.8073 32.1649 10.2035C30.4251 7.59971 27.9523 5.57026 25.0592 4.37187Z" fill="#F7931A"/>
</svg>
