<svg width="103" height="103" viewBox="0 0 103 103" fill="none" xmlns="http://www.w3.org/2000/svg">
<path d="M51.5001 72.9583C53.8703 72.9583 55.7917 74.8797 55.7917 77.2499C55.7917 79.6201 53.8703 81.5416 51.5001 81.5416C49.1298 81.5416 47.2084 79.6201 47.2084 77.2499C47.2084 74.8797 49.1298 72.9583 51.5001 72.9583Z" fill="#FF3B3B"/>
<path d="M51.5001 21.4583C52.6383 21.4583 53.7296 21.9108 54.5344 22.7156C55.3392 23.5205 55.7917 24.6118 55.7917 25.75V60.0833C55.7917 61.2215 55.3392 62.3128 54.5344 63.1176C53.7296 63.9225 52.6383 64.3749 51.5001 64.3749C50.3618 64.3749 49.2706 63.9225 48.4657 63.1176C47.6609 62.3128 47.2084 61.2215 47.2084 60.0833V25.75C47.2084 24.6118 47.6609 23.5205 48.4657 22.7156C49.2706 21.9108 50.3618 21.4583 51.5001 21.4583Z" fill="#FF3B3B"/>
<path fill-rule="evenodd" clip-rule="evenodd" d="M51.5001 0C65.1542 0.014768 78.2442 5.44601 87.8991 15.1009C97.554 24.7558 102.985 37.8458 103 51.4999C103 61.6856 99.9787 71.6419 94.3198 80.111C88.6609 88.5801 80.6178 95.181 71.2074 99.0789C61.7972 102.977 51.4425 103.998 41.4527 102.011C31.4627 100.024 22.2866 95.1181 15.0843 87.9157C7.88192 80.7134 2.97637 71.5373 0.989213 61.5473C-0.997894 51.5575 0.0233374 41.2028 3.9211 31.7926C7.81901 22.3822 14.4199 14.3391 22.889 8.68018C31.3581 3.02135 41.3144 4.85467e-06 51.5001 0ZM67.9235 11.8505C60.0815 8.60224 51.4522 7.75255 43.1272 9.4085C34.8023 11.0645 27.1549 15.1509 21.1529 21.1528C15.151 27.1547 11.0646 34.8022 9.40862 43.1271C7.75267 51.4521 8.60236 60.0814 11.8506 67.9234C15.0989 75.7653 20.5999 82.468 27.6575 87.1837C34.715 91.8993 43.0121 94.4166 51.5001 94.4166C62.8784 94.4041 73.7866 89.8779 81.8323 81.8322C89.878 73.7864 94.4042 62.8783 94.4167 51.4999C94.4167 43.012 91.8994 34.7149 87.1838 27.6574C82.4681 20.5998 75.7655 15.0988 67.9235 11.8505Z" fill="#FF3B3B"/>
</svg>
