<svg fill="none" viewBox="0 0 59 38" xmlns="http://www.w3.org/2000/svg">
    <path d="m3.33 29.4v-20.9c0-1.48 0.609-2.89 1.69-3.94 1.08-1.04 2.55-1.63 4.09-1.63h24.6c1.53 0 3 0.586 4.09 1.63 1.08 1.04 1.69 2.46 1.69 3.94v20.9c0 1.48-0.609 2.89-1.69 3.94-1.08 1.04-2.55 1.63-4.09 1.63h-24.6c-1.53 0-3-0.586-4.09-1.63-1.08-1.04-1.69-2.46-1.69-3.94zm49.6-24.4-11.6 9.91c-0.152 0.13-0.274 0.29-0.358 0.469-0.0836 0.179-0.127 0.373-0.127 0.569v4.95c3e-4 0.196 0.0438 0.39 0.127 0.569 0.0837 0.179 0.206 0.339 0.358 0.469l11.6 9.91c0.208 0.178 0.465 0.294 0.741 0.335 0.275 0.0405 0.557 0.0036 0.811-0.106 0.254-0.11 0.47-0.288 0.621-0.514s0.232-0.488 0.232-0.756v-24.8c1e-4 -0.268-0.0803-0.531-0.232-0.756s-0.367-0.404-0.621-0.513c-0.254-0.11-0.536-0.147-0.811-0.106s-0.532 0.157-0.741 0.335z"
          stroke="#ddd"
          stroke-linecap="round"
          stroke-linejoin="round"
          stroke-width="6" />
</svg>