<svg width="55" height="54" viewBox="0 0 55 54" fill="none" xmlns="http://www.w3.org/2000/svg">
<path d="M35.15 22.2298L24.8225 11.9023C24.401 11.4833 23.8307 11.248 23.2363 11.248C22.6419 11.248 22.0716 11.4833 21.65 11.9023C21.4392 12.1115 21.2718 12.3603 21.1575 12.6345C21.0433 12.9087 20.9845 13.2028 20.9845 13.4998C20.9845 13.7969 21.0433 14.0909 21.1575 14.3651C21.2718 14.6393 21.4392 14.8882 21.65 15.0973L32 25.4023C32.2109 25.6115 32.3783 25.8604 32.4925 26.1345C32.6068 26.4087 32.6656 26.7028 32.6656 26.9998C32.6656 27.2969 32.6068 27.5909 32.4925 27.8651C32.3783 28.1393 32.2109 28.3882 32 28.5973L21.65 38.9023C21.2264 39.323 20.9872 39.8948 20.985 40.4919C20.9829 41.0889 21.2181 41.6624 21.6388 42.0861C22.0595 42.5098 22.6313 42.749 23.2283 42.7511C23.8254 42.7532 24.3989 42.518 24.8225 42.0973L35.15 31.7698C36.4141 30.5042 37.1241 28.7886 37.1241 26.9998C37.1241 25.2111 36.4141 23.4955 35.15 22.2298Z" fill="white" fill-opacity="0.5"/>
</svg>
