<svg width="48" height="38" viewBox="0 0 48 38" fill="none" xmlns="http://www.w3.org/2000/svg">
<path d="M24 36C28.3512 36 32.6047 35.003 36.2225 33.135C39.8404 31.267 42.6602 28.612 44.3253 25.5056C45.9905 22.3993 46.4261 18.9811 45.5773 15.6835C44.7284 12.3858 42.6331 9.35668 39.5563 6.97919C36.4796 4.6017 32.5596 2.98261 28.292 2.32666C24.0244 1.67071 19.6009 2.00737 15.581 3.29406C11.561 4.58074 8.12506 6.75968 5.70767 9.55531C3.29028 12.3509 2 15.6377 2 19C2 21.8107 2.88 24.4608 4.44444 26.7954L2 36L13.9118 34.1111C16.9331 35.32 20.3651 36 24 36Z" fill="white" stroke="white" stroke-width="4" stroke-linecap="round" stroke-linejoin="round"/>
</svg>
